<svg viewBox="0 0 950 662" fill="none" xmlns="http://www.w3.org/2000/svg">
<g id="celebration 1" clip-path="url(#clip0)">
<g id="m">
<path id="Vector" d="M430.459 497.281L414.129 512.931C410.389 528.931 401.199 531.641 401.199 531.641C376.369 536.061 387.589 512.641 387.589 512.641L403.339 485.991L405.279 482.701C405.279 482.701 416.509 479.301 423.989 481.341C424.933 481.6 425.806 482.072 426.539 482.721C431.229 486.791 430.459 497.281 430.459 497.281Z" fill="#444176"/>
<path id="Vector_2" d="M531.149 511.231C519.579 514.631 511.419 502.391 512.149 499.321C512.879 496.251 501.579 472.141 501.579 472.141L502.459 465.781L503.279 459.891L522.279 461.251L524.069 465.011L535.209 488.461C535.209 488.461 542.719 507.831 531.149 511.231Z" fill="#444176"/>
<path id="Vector_3" opacity="0.1" d="M426.719 485.381C424.929 488.451 410.419 486.901 403.349 485.941L405.289 482.651C405.289 482.651 416.519 479.251 423.999 481.291C424.943 481.55 425.816 482.022 426.549 482.671C426.649 484.331 426.719 485.381 426.719 485.381Z" fill="black"/>
<path id="Vector_4" opacity="0.1" d="M524.089 464.991C514.359 471.471 503.999 466.571 502.439 465.761L503.259 459.871L522.259 461.231L524.089 464.991Z" fill="black"/>
<path id="Vector_5" d="M526.729 430.951C523.329 436.391 526.729 461.571 526.729 461.571C515.499 471.781 502.239 464.291 502.239 464.291L500.239 402.721C500.239 402.721 478.129 352.031 462.479 353.391C446.829 354.751 420.979 409.521 420.979 409.521C420.979 409.521 428.119 456.461 426.759 460.521C425.399 464.581 426.759 484.331 426.759 484.331C424.379 488.411 399.549 484.331 399.549 484.331L392.409 395.881L401.889 376.141C407.339 356.821 416.599 336.141 422.139 324.541C424.889 318.771 426.729 315.251 426.729 315.251L444.829 311.481L503.579 299.301L524.689 376.141C528.769 383.621 531.149 400.631 531.149 400.631C531.149 400.631 530.129 425.511 526.729 430.951Z" fill="#565387"/>
<g id="Group" opacity="0.1">
<path id="Vector_6" opacity="0.1" d="M507.679 464.291L505.679 402.721C505.679 402.721 483.569 352.031 467.919 353.391C467.219 353.459 466.531 353.614 465.869 353.851C481.129 358.921 500.239 402.721 500.239 402.721L502.239 464.291C506.412 466.417 511.115 467.275 515.769 466.761C512.948 466.422 510.209 465.585 507.679 464.291V464.291Z" fill="black"/>
<path id="Vector_7" opacity="0.1" d="M404.949 484.361L397.809 395.911L407.329 376.141C412.779 356.821 422.039 336.141 427.579 324.541C430.329 318.771 432.169 315.251 432.169 315.251L450.269 311.481L503.899 300.331L503.609 299.261L444.829 311.481L426.729 315.251C426.729 315.251 424.889 318.771 422.139 324.541C416.579 336.141 407.339 356.861 401.889 376.141L392.369 395.871L399.509 484.321C399.509 484.321 413.069 486.551 421.109 486.061C415.697 485.767 410.304 485.2 404.949 484.361V484.361Z" fill="black"/>
</g>
<path id="Vector_8" d="M363.579 210.351C363.579 210.351 344.189 211.351 346.909 231.781L352.349 232.461L360.509 223.621L364.589 216.141V214.441L363.579 210.351Z" fill="#CED2DF"/>
<path id="Vector_9" opacity="0.1" d="M363.579 210.351C363.579 210.351 344.189 211.351 346.909 231.781L352.349 232.461L360.509 223.621L364.589 216.141V214.441L363.579 210.351Z" fill="black"/>
<path id="Vector_10" d="M579.289 217.831C579.289 217.831 595.289 226.331 591.199 236.201L586.099 238.201L579.299 234.461L578.299 225.621L578.979 219.501L579.289 217.831Z" fill="#CED2DF"/>
<path id="Vector_11" opacity="0.1" d="M579.289 217.831C579.289 217.831 595.289 226.331 591.199 236.201L586.099 238.201L579.299 234.461L578.299 225.621L578.979 219.501L579.289 217.831Z" fill="black"/>
<path id="Vector_12" d="M476.559 130.061H462.949C451.301 130.061 441.859 139.503 441.859 151.151C441.859 162.799 451.301 172.241 462.949 172.241H476.559C488.207 172.241 497.649 162.799 497.649 151.151C497.649 139.503 488.207 130.061 476.559 130.061Z" fill="#88455E"/>
<path id="Vector_13" d="M363.449 213.241L351.539 232.241L350.539 228.861L334.359 176.141C333.806 174.344 333.894 172.41 334.609 170.671C338.699 160.731 353.119 127.671 358.349 143.121C364.469 161.121 347.799 180.541 347.799 180.541C349.699 196.301 358.549 207.721 362.029 211.681C362.909 212.711 363.449 213.241 363.449 213.241Z" fill="#EC8C9C"/>
<path id="Vector_14" d="M576.739 221.401C576.739 221.401 595.449 203.711 594.739 196.571C594.739 196.571 577.049 168.001 585.899 161.571C592.899 156.451 603.529 182.251 607.649 193.221C608.194 194.682 608.412 196.245 608.29 197.8C608.167 199.354 607.706 200.863 606.939 202.221L584.579 241.811L576.739 221.401Z" fill="#EC8C9C"/>
<path id="Vector_15" d="M455.629 172.081C455.629 172.081 459.029 193.851 449.169 202.021C439.309 210.191 477.409 210.141 477.409 210.141L491.019 197.551C491.019 197.551 475.369 182.921 480.129 172.041L455.629 172.081Z" fill="#EC8C9C"/>
<path id="Vector_16" opacity="0.1" d="M454.949 196.911C454.949 196.911 469.579 207.801 484.199 195.551L508.009 244.881L506.649 305.091C506.649 305.091 457.319 330.601 436.909 314.961C416.499 299.321 433.509 291.151 433.509 291.151L428.749 244.891L433.849 214.951C433.849 214.951 443.029 200.661 443.719 200.661C444.409 200.661 454.949 196.911 454.949 196.911Z" fill="black"/>
<path id="Vector_17" d="M454.949 196.231C454.949 196.231 469.579 207.141 484.209 194.871L508.019 244.201L506.659 304.411C506.659 304.411 457.329 329.921 436.919 314.281C416.509 298.641 433.519 290.471 433.519 290.471L428.759 244.211L433.859 214.271C433.859 214.271 443.039 199.981 443.729 199.981C444.419 199.981 454.949 196.231 454.949 196.231Z" fill="#EBF1F6"/>
<path id="Vector_18" opacity="0.1" d="M454.949 191.141C454.949 191.141 441.079 199.041 426.019 198.651C424.606 198.607 423.199 198.844 421.879 199.349C420.559 199.853 419.352 200.616 418.329 201.591C414.039 205.711 406.529 212.231 401.879 212.231C400.879 212.231 371.939 218.011 371.939 218.011L364.289 210.361C364.289 210.361 352.889 232.641 347.449 231.621L357.319 244.551C357.319 244.551 376.029 252.711 400.519 242.851H414.809L422.289 265.981C422.289 265.981 418.549 297.281 415.489 304.081C412.429 310.881 416.489 324.151 416.489 324.151L443.359 323.151C443.359 323.151 444.719 309.881 446.759 308.151C448.799 306.421 439.619 247.941 439.619 247.941C439.619 247.941 433.499 214.941 455.949 203.041L454.949 191.141Z" fill="black"/>
<path id="Vector_19" opacity="0.1" d="M444.819 311.521C443.83 315.557 443.125 319.657 442.709 323.791L422.139 324.571C424.889 318.801 426.729 315.281 426.729 315.281L444.819 311.521Z" fill="black"/>
<path id="Vector_20" opacity="0.1" d="M363.449 213.241L351.539 232.241L350.539 228.861C354.909 224.521 360.029 215.451 362.069 211.671C362.909 212.711 363.449 213.241 363.449 213.241Z" fill="black"/>
<path id="Vector_21" d="M454.949 191.141C454.949 191.141 440.389 199.041 425.339 198.651C423.926 198.607 422.519 198.844 421.199 199.349C419.879 199.853 418.672 200.616 417.649 201.591C413.359 205.711 405.849 212.231 401.199 212.231C400.199 212.231 371.259 218.011 371.259 218.011L363.579 210.351C363.579 210.351 352.179 232.631 346.739 231.611L356.609 244.541C356.609 244.541 375.319 252.701 399.809 242.841H414.099L421.579 265.961C421.579 265.961 417.839 297.261 414.779 304.061C411.719 310.861 415.779 324.131 415.779 324.131L442.649 323.131C442.649 323.131 444.009 309.861 446.049 308.131C448.089 306.401 438.909 247.921 438.909 247.921C438.909 247.921 432.789 214.921 455.239 203.021L454.949 191.141Z" fill="#CED2DF"/>
<path id="Vector_22" opacity="0.1" d="M484.209 189.081C484.209 189.081 498.089 199.661 516.619 200.881C518.646 201.008 520.585 201.759 522.169 203.031C526.842 206.996 530.803 211.731 533.879 217.031C541.359 229.281 559.729 227.921 559.729 227.921C559.729 227.921 577.589 222.311 578.609 217.921C578.609 217.921 579.119 241.921 590.349 236.121L575.579 253.141C574.648 254.216 573.507 255.089 572.225 255.707C570.944 256.324 569.55 256.673 568.129 256.731C562.579 256.951 552.939 257.021 544.799 255.441C532.549 253.061 523.709 247.281 517.249 252.381C517.249 252.381 508.749 278.911 514.529 288.441C520.309 297.971 530.529 313.951 525.759 318.041C520.989 322.131 515.209 321.781 505.689 311.921C496.169 302.061 495.139 285.391 495.139 285.391L497.519 242.531C497.519 242.531 488.339 210.211 479.519 203.751L484.209 189.081Z" fill="black"/>
<path id="Vector_23" opacity="0.1" d="M591.699 235.691L576.889 252.781C575.905 253.915 574.687 254.822 573.319 255.441V255.441C572.103 255.99 570.792 256.299 569.459 256.351C563.909 256.581 554.269 256.651 546.129 255.061C534.669 252.831 526.189 247.631 519.849 251.141C519.4 251.389 518.972 251.673 518.569 251.991C518.569 251.991 510.069 278.521 515.849 288.051C521.629 297.581 531.849 313.561 527.079 317.651C526.281 318.353 525.385 318.936 524.419 319.381C520.139 321.311 514.829 319.641 507.009 311.531C497.489 301.661 496.459 285.001 496.459 285.001L498.839 242.141C498.839 242.141 489.659 209.821 480.839 203.361L484.729 189.411C487.409 191.231 500.789 199.781 517.329 200.871C519.357 200.998 521.295 201.749 522.879 203.021C527.552 206.986 531.512 211.721 534.589 217.021C542.069 229.271 560.439 227.911 560.439 227.911C564.843 226.506 569.143 224.795 573.309 222.791V222.791C575.919 221.511 578.219 220.111 579.309 218.791C579.615 218.446 579.837 218.036 579.959 217.591C579.959 217.591 580.479 241.471 591.699 235.691Z" fill="black"/>
<path id="Vector_24" d="M591.019 236.031L576.219 253.141C575.405 254.08 574.43 254.866 573.339 255.461V255.461C571.941 256.22 570.388 256.648 568.799 256.711C563.249 256.941 553.609 257.011 545.469 255.421C534.419 253.271 526.129 248.351 519.879 251.161C519.165 251.472 518.493 251.872 517.879 252.351C517.879 252.351 509.379 278.881 515.159 288.411C520.939 297.941 531.159 313.921 526.389 318.011C525.772 318.542 525.102 319.008 524.389 319.401C519.989 321.831 514.549 320.401 506.299 311.891C496.779 302.021 495.749 285.361 495.749 285.361L498.129 242.501C498.129 242.501 488.949 210.181 480.129 203.721L484.209 189.091L484.699 189.431C487.379 191.251 500.759 199.801 517.299 200.891C519.326 201.018 521.265 201.769 522.849 203.041C527.522 207.006 531.482 211.741 534.559 217.041C542.039 229.291 560.409 227.931 560.409 227.931C564.813 226.526 569.114 224.815 573.279 222.811V222.811C576.369 221.231 578.889 219.501 579.279 217.921C579.279 217.921 579.279 218.231 579.279 218.781C579.579 222.911 581.079 241.141 591.019 236.031Z" fill="#CED2DF"/>
<path id="Vector_25" opacity="0.1" d="M480.429 172.591H455.429C455.979 176.566 456.136 180.585 455.899 184.591C459.715 187.276 464.191 188.872 468.845 189.207C473.5 189.542 478.158 188.603 482.319 186.491C479.919 182.051 478.459 177.011 480.429 172.591Z" fill="black"/>
<path id="Vector_26" d="M470.599 188.741C484.312 188.741 495.429 177.624 495.429 163.911C495.429 150.198 484.312 139.081 470.599 139.081C456.886 139.081 445.769 150.198 445.769 163.911C445.769 177.624 456.886 188.741 470.599 188.741Z" fill="#EC8C9C"/>
<path id="Vector_27" opacity="0.1" d="M465.439 159.491C468.209 159.161 470.979 158.181 473.709 158.731C476.189 159.231 478.299 160.941 480.779 161.461C485.559 162.461 489.999 158.941 493.609 155.661L501.409 148.561C503.139 146.991 504.919 145.341 505.809 143.181C506.699 141.021 506.389 138.181 504.489 136.821C501.639 134.821 496.729 136.821 494.669 133.981C493.739 132.701 493.879 130.981 493.399 129.451C492.399 126.391 488.959 124.721 485.739 124.681C482.519 124.641 479.439 125.821 476.359 126.681C469.871 128.563 463.087 129.211 456.359 128.591C454.543 128.259 452.677 128.323 450.889 128.781C449.788 129.251 448.813 129.972 448.042 130.888C447.271 131.803 446.725 132.886 446.449 134.051C444.909 139.491 447.539 148.261 450.179 153.131C452.819 158.001 460.169 160.141 465.439 159.491Z" fill="black"/>
<path id="Vector_28" d="M465.439 158.811C468.209 158.481 470.979 157.501 473.709 158.051C476.189 158.551 478.299 160.261 480.779 160.781C485.559 161.781 489.999 158.261 493.609 154.981L501.409 147.881C503.139 146.311 504.919 144.661 505.809 142.501C506.699 140.341 506.389 137.501 504.489 136.141C501.639 134.141 496.729 136.141 494.669 133.301C493.739 132.021 493.879 130.301 493.399 128.771C492.399 125.711 488.959 124.041 485.739 124.001C482.519 123.961 479.439 125.141 476.359 126.001C469.871 127.883 463.087 128.531 456.359 127.911C454.543 127.579 452.677 127.643 450.889 128.101C449.788 128.571 448.813 129.292 448.042 130.208C447.271 131.123 446.725 132.206 446.449 133.371C444.909 138.811 447.539 147.581 450.179 152.451C452.819 157.321 460.169 159.411 465.439 158.811Z" fill="#88455E"/>
<path id="Vector_29" opacity="0.1" d="M422.129 266.141C422.129 266.141 427.569 266.821 430.289 270.221C433.009 273.621 437.769 274.641 437.769 274.641" fill="black"/>
<path id="Vector_30" opacity="0.1" d="M373.139 221.231C373.139 221.231 377.579 231.141 374.839 232.141C372.099 233.141 373.139 240.301 373.139 240.301" fill="black"/>
<g id="Group_2" opacity="0.1">
<path id="Vector_31" opacity="0.1" d="M374.669 217.831C374.669 217.831 403.579 212.051 404.579 212.051C409.239 212.051 416.739 205.531 421.029 201.411C422.334 200.161 423.939 199.269 425.689 198.821H425.319C423.906 198.777 422.499 199.014 421.179 199.519C419.859 200.023 418.652 200.786 417.629 201.761C413.339 205.881 405.829 212.401 401.179 212.401C400.369 212.401 381.869 216.071 374.359 217.561L374.669 217.831Z" fill="black"/>
<path id="Vector_32" opacity="0.1" d="M454.989 192.571V191.301C448.034 194.847 440.551 197.242 432.829 198.391C440.49 197.709 447.982 195.742 454.989 192.571V192.571Z" fill="black"/>
<path id="Vector_33" opacity="0.1" d="M419.239 323.961C419.239 323.961 415.159 310.691 418.239 303.891C421.319 297.091 425.039 265.791 425.039 265.791L417.579 242.661H403.249L402.379 243.001H414.129L421.579 266.141C421.579 266.141 417.839 297.441 414.779 304.241C411.719 311.041 415.779 324.311 415.779 324.311L442.649 323.311V323.101L419.239 323.961Z" fill="black"/>
</g>
<g id="Group_3" opacity="0.1">
<path id="Vector_34" opacity="0.1" d="M526.729 312.571C526.112 313.102 525.442 313.568 524.729 313.961C520.329 316.391 514.889 314.961 506.639 306.451C499.079 298.621 496.879 286.451 496.289 281.841L496.089 285.361C496.089 285.361 497.089 302.031 506.639 311.891C514.889 320.431 520.329 321.831 524.729 319.401C525.442 319.008 526.112 318.542 526.729 318.011C528.159 316.781 528.239 314.471 527.489 311.591C527.303 311.965 527.045 312.298 526.729 312.571V312.571Z" fill="black"/>
<path id="Vector_35" opacity="0.1" d="M586.209 236.541L576.579 247.671C575.765 248.61 574.79 249.396 573.699 249.991V249.991C572.301 250.75 570.748 251.178 569.159 251.241C563.609 251.471 553.969 251.541 545.829 249.951C534.779 247.801 526.489 242.881 520.239 245.691C519.525 246.002 518.853 246.402 518.239 246.881C518.239 246.881 512.749 264.021 513.589 275.691C514.239 264.781 518.239 252.321 518.239 252.321C518.853 251.842 519.525 251.442 520.239 251.131C526.499 248.321 534.779 253.241 545.829 255.391C553.969 256.971 563.599 256.901 569.159 256.681C570.748 256.618 572.301 256.19 573.699 255.431C574.787 254.845 575.763 254.069 576.579 253.141L591.389 236.051C590.623 236.528 589.756 236.821 588.857 236.906C587.958 236.991 587.051 236.866 586.209 236.541V236.541Z" fill="black"/>
</g>
</g>
<g id="fl">
<path id="Vector_36" d="M140.64 367.65C140.759 367.765 140.911 367.839 141.075 367.86C141.239 367.882 141.406 367.85 141.55 367.77C141.242 367.775 140.936 367.735 140.64 367.65V367.65Z" fill="url(#paint0_linear)"/>
<path id="Vector_37" d="M242.55 202C240.75 201.48 238.18 200.63 235.09 199.55C238.301 195.419 240.651 190.685 242 185.63L241.74 185.73C241.83 185.42 241.92 185.12 242 184.8C236.07 187.21 229.51 183.13 225.33 177.89C221.15 172.65 218.33 166.15 213.75 161.33C211.841 159.413 209.789 157.644 207.61 156.04C206.26 155.04 204.81 153.91 203.16 153.86C200.49 153.78 198.4 156.4 195.83 157.17C194.139 157.551 192.378 157.485 190.72 156.98C184.09 155.46 177.72 152.65 170.95 151.91C167.328 151.463 163.651 151.877 160.22 153.12C156.82 154.41 155.27 156.98 152.52 159.04C149.52 161.25 143.66 161.2 140.17 161.59C135.935 162.074 131.671 162.251 127.41 162.12C124.962 161.908 122.496 161.998 120.07 162.39C115 163.5 110.93 167.53 107.13 171.39C106.093 172.263 105.346 173.432 104.99 174.74C104.941 175.108 104.941 175.482 104.99 175.85C104.952 176.858 105.125 177.863 105.5 178.8C106.67 182.271 108.323 185.56 110.41 188.57C111.96 190.79 113.77 192.88 114.65 195.51C115.067 196.803 115.286 198.151 115.3 199.51C115.257 200.952 115.106 202.39 114.85 203.81C114.179 207.736 113.076 211.576 111.56 215.26C110.619 217.151 109.972 219.174 109.64 221.26C109.611 221.686 109.611 222.114 109.64 222.54C109.39 229.14 116.05 233.89 117.34 240.45C117.446 240.994 117.509 241.546 117.53 242.1C117.39 246.19 115.06 250.19 111.62 251.78C111.92 251.9 112.23 252 112.54 252.1C112.244 252.286 111.937 252.453 111.62 252.6C112.25 252.84 112.89 253.05 113.54 253.22C109.63 256.625 106.345 260.686 103.83 265.22C92.26 286.76 13.9 328.95 13.9 328.95L15.06 329.61L14.12 330.22C7.33998 334.73 -8.57002 347.88 5.80998 364.51C5.80998 364.51 17.04 346.79 24.91 339.24C25.26 338.9 25.61 338.59 25.91 338.3C26.0829 338.566 26.1988 338.865 26.2504 339.179C26.3021 339.492 26.2883 339.812 26.21 340.12L77.73 311.17C77.73 311.17 96.04 298.35 101.15 295.46C104.747 293.219 108.661 291.534 112.76 290.46L112.16 290.71C114.086 290.18 116.072 289.898 118.07 289.87C127.19 290.01 137.07 296.69 140.32 323.14C144.68 358.56 142.66 364.95 141.26 365.82C141.087 365.807 140.917 365.777 140.75 365.73C140.793 365.768 140.84 365.801 140.89 365.83C140.7 365.817 140.513 365.783 140.33 365.73C140.431 365.822 140.553 365.888 140.687 365.919C140.82 365.951 140.958 365.947 141.09 365.91C141.185 365.939 141.284 365.947 141.382 365.935C141.481 365.923 141.575 365.891 141.66 365.84C141.89 365.853 142.12 365.853 142.35 365.84C142.35 366.167 142.327 366.5 142.28 366.84C142.21 366.84 141.87 367.03 142.28 367.05C142.17 369.05 142.18 371.22 142.28 373.49C137.75 373.74 133.22 374.01 129.28 374.25L129.63 372.38L129.79 371.54C133.27 371.26 136.57 370.24 136.96 367.42C137.81 361.22 129.3 357.91 122.06 357.5C114.82 357.09 71.4 359.98 71.4 359.98C71.4 359.98 64.89 368.41 85.54 370.98C86.1533 371.3 86.79 371.633 87.45 371.98C95.54 376.59 106.51 385.08 111.77 389.26L112.5 389.84L110.14 391.76C122.91 394.65 135.26 443.45 142.07 465.76C148.88 488.07 163.78 487.26 176.13 483.95C187.7 480.85 189.13 447.25 189.32 443.03V442.6L209.9 468.02L211.46 469.95C212.06 470.263 212.653 470.557 213.24 470.83C228.82 478.24 246.03 464.03 241.14 447.83C236.19 431.5 228.51 407.35 223.39 397.14C219.1 388.59 213.56 374.39 210.2 365.5C210.636 365.325 211.061 365.121 211.47 364.89C211.47 364.89 211.39 364.49 211.26 363.76L211.47 363.65C211.47 363.65 206.47 337.93 206.25 319.65C206.25 319.33 206.25 318.997 206.25 318.65C206.25 318.45 206.25 318.25 206.25 318.06C209.97 317.21 212.33 316.88 212.33 316.88L212.4 316.08L211.97 316.17L214.04 292.48C214.04 292.48 221.64 276.31 215.82 269.58C214.051 267.612 212.869 265.186 212.41 262.58C211.41 256.39 212.41 246.06 225.96 237.48C246.82 224.25 254.96 213.48 254.96 213.48C254.96 213.48 255.32 205.76 242.55 202ZM201.12 218.44V207.49C204.99 207.3 208.94 207.75 212.83 207.49C214.74 207.357 216.632 207.038 218.48 206.54L219.42 207.19C213.729 211.568 207.595 215.338 201.12 218.44V218.44ZM141.97 390.08C143.5 391.14 145.04 392.24 146.55 393.35C147.49 398.75 148.32 402.56 148.38 402.83C146.654 398.386 144.508 394.116 141.97 390.08V390.08Z" fill="url(#paint1_linear)"/>
<path id="Vector_38" d="M175.03 381.08L174.13 385.97L173.44 389.71L172.18 396.55L159.96 405.1C159.96 405.1 158.86 404.16 157.04 402.67C152.04 398.55 141.51 390.19 133.78 385.67C131.794 384.402 129.644 383.409 127.39 382.72L175.03 381.08Z" fill="#FFBDC6"/>
<path id="Vector_39" opacity="0.1" d="M175.03 381.08L174.13 385.97C171.436 386.12 168.735 385.982 166.07 385.56L137.56 385.97C136.21 385.89 134.95 385.78 133.77 385.66C131.784 384.392 129.634 383.399 127.38 382.71L175.03 381.08Z" fill="black"/>
<path id="Vector_40" d="M166.07 384.76C166.07 384.76 180.33 387.2 181.14 381.09C181.95 374.98 173.81 371.76 166.9 371.3C159.99 370.84 118.42 373.76 118.42 373.76C118.42 373.76 111.09 383.53 137.56 385.16L166.07 384.76Z" fill="#7679B4"/>
<path id="Vector_41" opacity="0.1" d="M175.03 381.08L174.13 385.97L173.44 389.71L172.18 396.55L159.96 405.1C159.96 405.1 158.86 404.16 157.04 402.67C152.04 398.55 141.51 390.19 133.78 385.67C131.794 384.402 129.644 383.409 127.39 382.72L175.03 381.08Z" fill="black"/>
<path id="Vector_42" opacity="0.1" d="M175.03 381.08L174.13 385.97C171.436 386.12 168.735 385.982 166.07 385.56L137.56 385.97C136.21 385.89 134.95 385.78 133.77 385.66C131.784 384.392 129.634 383.399 127.38 382.71L175.03 381.08Z" fill="black"/>
<path id="Vector_43" opacity="0.1" d="M166.07 384.76C166.07 384.76 180.33 387.2 181.14 381.09C181.95 374.98 173.81 371.76 166.9 371.3C159.99 370.84 118.42 373.76 118.42 373.76C118.42 373.76 111.09 383.53 137.56 385.16L166.07 384.76Z" fill="black"/>
<path id="Vector_44" d="M197.22 183.95H122.69V272.33H197.22V183.95Z" fill="#A66477"/>
<path id="Vector_45" opacity="0.1" d="M197.22 183.95H122.69V272.33H197.22V183.95Z" fill="black"/>
<path id="Vector_46" d="M35.33 335.26C34.1 335.57 32.54 336.75 30.79 338.47C23.26 345.91 12.52 363.36 12.52 363.36C-1.24002 346.98 13.99 334.03 20.52 329.58C22.1 328.5 23.16 327.92 23.16 327.92L35.33 335.26Z" fill="#FFBDC6"/>
<path id="Vector_47" d="M174.22 211.85C174.22 211.85 177.89 237.51 190.51 243.62C203.13 249.73 174.22 261.13 174.22 261.13L134.71 246.47C134.71 246.47 157.11 239.14 152.63 217.55L174.22 211.85Z" fill="#FFBDC6"/>
<path id="Vector_48" d="M131.9 366.21L131 371.1L130.31 374.84L129.05 381.68L116.83 390.23C116.83 390.23 115.73 389.29 113.91 387.8C108.91 383.68 98.38 375.32 90.65 370.8C88.6636 369.532 86.5139 368.539 84.26 367.85L131.9 366.21Z" fill="#FFBDC6"/>
<path id="Vector_49" opacity="0.1" d="M131.9 366.21L131 371.1C128.306 371.25 125.604 371.112 122.94 370.69L94.43 371.1C93.08 371.02 91.82 370.91 90.64 370.79C88.6536 369.522 86.5039 368.529 84.25 367.84L131.9 366.21Z" fill="black"/>
<path id="Vector_50" d="M122.9 369.88C122.9 369.88 137.16 372.32 137.97 366.21C138.78 360.1 130.64 356.84 123.71 356.44C116.78 356.04 75.24 358.88 75.24 358.88C75.24 358.88 67.91 368.65 94.38 370.28L122.9 369.88Z" fill="#7679B4"/>
<path id="Vector_51" opacity="0.1" d="M130.27 374.85L129.01 381.69L116.79 390.24C116.79 390.24 115.69 389.3 113.87 387.81L130.03 374.56L130.27 374.85Z" fill="black"/>
<path id="Vector_52" d="M210.9 468.09C210.34 467.817 209.773 467.527 209.2 467.22L207.71 465.32L188.03 440.32V440.76C187.9 444.91 186.48 478.01 175.42 481.06C163.61 484.32 149.35 485.13 142.84 463.14C136.33 441.15 124.51 393.09 112.29 390.24L130.41 375.37C130.41 375.37 142.41 389.37 147.31 402.85C147.13 401.99 138.84 363.28 145.68 356.44H205.14C205.14 356.44 214.3 382.58 220.62 395.54C225.52 405.6 232.87 429.38 237.62 445.47C242.32 461.39 225.9 475.39 210.9 468.09Z" fill="#7679B4"/>
<path id="Vector_53" opacity="0.1" d="M209.24 363.76C200.07 369.19 159.75 366.98 146.61 366.1L143.04 365.84C142.65 365.84 143.1 365.62 143.1 365.62L143.47 361.92L153.24 337.08L205.58 306.76C204.52 309.95 204.16 314.84 204.25 320.45C204.51 338.43 209.24 363.76 209.24 363.76Z" fill="black"/>
<path id="Vector_54" d="M209.24 362.55C200.07 367.98 159.75 365.77 146.61 364.89L143.04 364.63H142.45L143.1 364.46L146.32 363.61L153.24 335.91L205.58 305.57C204.52 308.76 204.16 313.65 204.25 319.26C204.51 337.21 209.24 362.55 209.24 362.55Z" fill="#F2F1F2"/>
<path id="Vector_55" opacity="0.1" d="M204.25 319.22C193.61 321.67 170.19 328.88 161.19 346.22C155.19 357.8 150.19 362.77 146.62 364.85L143.05 364.59L143.11 364.37L146.33 363.52L153.25 335.82L205.59 305.48C204.51 308.76 204.16 313.61 204.25 319.22Z" fill="black"/>
<path id="Vector_56" opacity="0.1" d="M23.11 327.93L35.33 335.26C34.1 335.57 32.54 336.75 30.79 338.47C29.79 335.47 23.37 331.35 20.47 329.59C22.05 328.51 23.11 327.93 23.11 327.93Z" fill="black"/>
<path id="Vector_57" opacity="0.1" d="M140.9 365.1C140.764 365.176 140.607 365.206 140.452 365.187C140.297 365.167 140.153 365.098 140.04 364.99C140.32 365.069 140.609 365.106 140.9 365.1V365.1Z" fill="black"/>
<path id="Vector_58" d="M168.51 241.99C168.51 241.99 157.51 243.21 149.77 235.07C149.77 235.07 117.19 244.44 106.19 265.62C95.19 286.8 20.25 328.34 20.25 328.34C20.25 328.34 33.25 335.67 32.06 339.34L81.34 310.83C81.34 310.83 98.85 298.2 103.74 295.35C108.63 292.5 135.51 274.99 141.21 322.64C146.91 370.29 141.21 364.64 141.21 364.64C141.21 364.64 149.36 367.49 161.21 344.64C173.06 321.79 209.68 316.54 209.68 316.54L211.68 292.54C211.68 292.54 218.95 276.62 213.38 269.98C211.681 268.026 210.554 265.642 210.12 263.09C209.19 256.99 210.12 246.82 223.12 238.37C243.12 225.37 250.82 214.75 250.82 214.75C250.82 214.75 251.23 207.01 239.01 203.35C226.79 199.69 177.1 179.73 177.1 179.73L175.47 186.65L214.57 214.35C214.57 214.35 195.02 230.23 179.57 229.83C179.51 229.76 182.36 241.58 168.51 241.99Z" fill="#565388"/>
<path id="Vector_59" opacity="0.1" d="M176.06 223.02C175.097 219.738 174.345 216.398 173.81 213.02L152.22 218.76C153.165 222.88 152.996 227.177 151.73 231.21C156.142 232.387 160.804 232.237 165.131 230.779C169.459 229.32 173.26 226.618 176.06 223.01V223.02Z" fill="black"/>
<path id="Vector_60" d="M158.13 230.79C170.954 230.79 181.35 220.394 181.35 207.57C181.35 194.746 170.954 184.35 158.13 184.35C145.306 184.35 134.91 194.746 134.91 207.57C134.91 220.394 145.306 230.79 158.13 230.79Z" fill="#FFBDC6"/>
<path id="Vector_61" opacity="0.1" d="M170.47 154.76C176.91 155.49 183.04 158.26 189.38 159.76C190.964 160.257 192.652 160.322 194.27 159.95C196.73 159.19 198.73 156.61 201.27 156.69C202.84 156.69 204.27 157.81 205.53 158.84C207.617 160.424 209.58 162.165 211.4 164.05C215.77 168.8 218.49 175.2 222.48 180.36C226.47 185.52 232.76 189.54 238.43 187.17C234.58 202.17 221.94 213.64 208.28 214.57C202.83 214.94 197.28 213.81 191.97 215.41C190.654 215.946 189.265 216.284 187.85 216.41C184.85 216.41 182.37 213.62 180.47 210.91C176.03 204.53 172.47 197.29 167.47 191.48C165.82 189.56 163.87 187.73 161.54 187.38C159.21 187.03 157.06 188.14 154.98 189.22C151.55 191 148.04 192.84 145.38 195.88C142.72 198.92 141.04 203.47 142.14 207.59C142.73 209.81 144.09 211.81 144.14 214.14C144.14 217.84 140.92 220.55 140.27 224.14C140.127 225.656 140.073 227.178 140.11 228.7C139.82 233.64 136.6 237.7 133.22 240.79C131.91 242 130.45 243.29 130.07 245.16C129.81 246.43 130.07 247.78 129.9 249.07C129.41 252.28 126.21 253.9 123.38 254.32C120.075 254.804 116.7 254.404 113.6 253.16C117.6 251.29 119.99 245.96 119.07 241.16C117.81 234.55 111.17 229.81 111.73 223.07C112.043 221.006 112.663 219 113.57 217.12C115.019 213.484 116.072 209.702 116.71 205.84C117.364 202.868 117.299 199.782 116.52 196.84C115.67 194.25 113.94 192.19 112.46 190C110.456 187.023 108.874 183.782 107.76 180.37C107.356 179.362 107.202 178.271 107.31 177.19C107.632 175.915 108.329 174.766 109.31 173.89C112.95 170.08 116.85 166.11 121.69 165.01C124.003 164.625 126.355 164.534 128.69 164.74C132.767 164.87 136.849 164.696 140.9 164.22C144.24 163.83 149.9 163.88 152.72 161.7C155.35 159.7 156.84 157.15 160.09 155.87C163.407 154.656 166.971 154.275 170.47 154.76V154.76Z" fill="black"/>
<path id="Vector_62" opacity="0.1" d="M183.38 394.52C183.38 394.52 196.82 420.99 192.75 429.14Z" fill="black"/>
<path id="Vector_63" opacity="0.1" d="M207.75 465.32L188.07 440.32V440.76C188.07 440.76 186.93 432.68 190.68 435.4C198.89 441.34 212.03 451.08 212.31 452.76C212.59 454.44 209.65 461.18 207.75 465.32Z" fill="black"/>
<g id="Group_4" opacity="0.1">
<path id="Vector_64" opacity="0.1" d="M179.9 229.76C179.9 229.76 181.56 236.64 176.19 240.08C184.46 238.66 184.82 232.23 184.57 229.43C183.026 229.68 181.463 229.79 179.9 229.76V229.76Z" fill="black"/>
<path id="Vector_65" opacity="0.1" d="M25.15 326.71C25.15 326.71 100.09 285.17 111.09 263.99C118.98 248.79 137.99 239.68 148.09 235.74C140.72 238.21 115.92 247.68 106.6 265.62C95.6 286.8 20.66 328.34 20.66 328.34L25.15 326.71Z" fill="black"/>
<path id="Vector_66" opacity="0.1" d="M194.48 226.53C207.23 222.53 219.42 212.66 219.42 212.66L180.32 184.96L181.21 181.16L177.47 179.66L175.84 186.58L214.94 214.28C208.666 219.212 201.791 223.328 194.48 226.53V226.53Z" fill="black"/>
<path id="Vector_67" opacity="0.1" d="M194.73 320.39C199.726 318.684 204.853 317.39 210.06 316.52L210.13 315.73C204.884 316.882 199.735 318.44 194.73 320.39V320.39Z" fill="black"/>
<path id="Vector_68" opacity="0.1" d="M147.34 363.06H146.98C146.844 363.136 146.687 363.166 146.532 363.147C146.377 363.127 146.233 363.058 146.12 362.95C146.4 363.028 146.689 363.065 146.98 363.06C148.32 362.28 150.33 356.2 146.12 321C141.62 283.42 123.96 286.37 114.29 290.69C124.17 287.97 137.77 290.32 141.64 322.63C145.85 357.83 143.84 363.92 142.5 364.69C144.237 364.625 145.918 364.059 147.34 363.06Z" fill="black"/>
<path id="Vector_69" opacity="0.1" d="M142.5 364.7C142.209 364.705 141.92 364.668 141.64 364.59C141.753 364.698 141.897 364.767 142.052 364.786C142.207 364.806 142.364 364.776 142.5 364.7V364.7Z" fill="black"/>
</g>
<path id="Vector_70" d="M170.47 153.97C176.91 154.7 183.04 157.47 189.38 158.97C190.964 159.467 192.652 159.532 194.27 159.16C196.73 158.4 198.73 155.82 201.27 155.9C202.84 155.9 204.27 157.02 205.53 158.05C207.617 159.634 209.58 161.375 211.4 163.26C215.77 168.01 218.49 174.41 222.48 179.57C226.47 184.73 232.76 188.75 238.43 186.38C234.58 201.38 221.94 212.85 208.28 213.78C202.83 214.15 197.28 213.02 191.97 214.62C190.654 215.156 189.265 215.493 187.85 215.62C184.85 215.62 182.37 212.83 180.47 210.12C176.03 203.74 172.47 196.5 167.47 190.69C165.82 188.77 163.87 186.94 161.54 186.59C159.21 186.24 157.06 187.35 154.98 188.43C151.55 190.21 148.04 192.05 145.38 195.09C142.72 198.13 141.04 202.68 142.14 206.8C142.73 209.02 144.09 211.02 144.14 213.35C144.14 217.05 140.92 219.76 140.27 223.35C140.127 224.865 140.073 226.388 140.11 227.91C139.82 232.85 136.6 236.91 133.22 240C131.91 241.21 130.45 242.5 130.07 244.37C129.81 245.64 130.07 246.99 129.9 248.28C129.41 251.49 126.21 253.11 123.38 253.53C120.075 254.014 116.7 253.614 113.6 252.37C117.6 250.5 119.99 245.17 119.07 240.37C117.81 233.76 111.17 229.02 111.73 222.28C112.043 220.216 112.663 218.21 113.57 216.33C115.019 212.694 116.072 208.912 116.71 205.05C117.364 202.078 117.299 198.992 116.52 196.05C115.67 193.46 113.94 191.4 112.46 189.21C110.456 186.233 108.874 182.992 107.76 179.58C107.356 178.572 107.202 177.481 107.31 176.4C107.632 175.125 108.329 173.976 109.31 173.1C112.95 169.29 116.85 165.32 121.69 164.22C124.003 163.835 126.355 163.744 128.69 163.95C132.767 164.08 136.849 163.906 140.9 163.43C144.24 163.04 149.9 163.09 152.72 160.91C155.35 158.91 156.84 156.36 160.09 155.08C163.407 153.866 166.971 153.485 170.47 153.97V153.97Z" fill="#A66477"/>
</g>
<g id="fr">
<path id="Vector_71" d="M833.5 101.85C833.5 101.72 833.5 101.6 833.5 101.48C833.5 101.36 833.5 101.22 833.44 101.1H833.28C833.28 100.83 833.28 100.56 833.28 100.27C832.88 91 820.06 71.27 814.92 77.03C810.42 82.09 817.21 94.89 820.67 100.65L820.98 101.17L820.81 101.06C820.81 101.06 806.5 143.74 804.81 145.4C803.12 147.06 791.34 180.62 775.81 184.4C772.74 185.13 770.19 185.79 768.05 186.4L768.22 185.83C769.22 182.56 770.45 179.47 770.95 175.83C771.45 172.19 770.95 167.78 769.11 166.01C768.21 165.13 767.11 165.01 766.37 163.61C765.89 162.382 765.632 161.078 765.61 159.76L764.29 143.58L765.21 143.3C770.77 141.52 776.16 137.3 776.79 131.62C776.597 131.693 776.4 131.757 776.2 131.81C776.273 131.48 776.33 131.146 776.37 130.81C771.7 132.65 767.37 127.81 762.87 125.64C755.46 122.01 746.99 125.43 739.34 126.26C730.67 127.21 722.44 123.61 713.58 124.26C708.76 124.63 703.4 127.9 703.66 132.65C703.81 135.26 705.66 137.47 706.42 139.97C708.34 146.02 704.07 152.09 700.33 157.25C697.87 160.64 695.51 164.77 695.09 168.75C686.48 159.75 677.17 149.35 676.09 145.44L651.18 102.76C651.18 102.76 650.59 103.39 649.64 104.32C649.49 103.86 649.31 103.32 649.11 102.78C645.93 93.87 636.93 72.28 625.52 76.24C614.11 80.2 630.25 102.33 637.27 111.15L638.27 112.37C637.681 112.515 637.063 112.487 636.49 112.29L664.27 159.94C664.27 159.94 669.32 169.06 673.95 171.54C673.95 171.54 708.46 215.05 708.88 223.75C709.3 232.45 724.4 255.66 724.4 255.66C724.4 255.66 729.45 293.37 720.61 300H720.72H720.79H720.9H721H721.2H721.33H721.46H721.63H721.77H721.97H722.07C721.65 300.41 721.22 300.86 720.78 301.35C714.23 308.61 705.86 324.17 717.3 350.63C734.13 389.63 736.66 404.91 736.66 404.91C736.66 404.91 704.66 406.57 698.36 407.81C692.78 408.91 671.09 409.68 666.13 409.81C664.36 407.75 659.13 403.19 652.07 409.81C643.23 418.1 636.92 445.81 636.92 445.81C636.92 445.81 633.55 468.19 644.92 462.38C644.92 462.38 658.39 443.73 662.17 442.9C664.05 442.49 666.04 439.72 667.56 437.05L667.64 437.1C667.73 437.1 668.1 436.9 668.7 436.66C671.5 435.55 679.21 432.88 685.29 434.21C688.62 434.94 702.9 435.11 717.87 435.07C714.49 443.17 708.43 464.07 708.43 464.07C708.43 464.07 705.9 483.56 714.3 482.76C720.3 482.17 729.5 466.84 734.3 458.09C737.78 455.54 747.75 446.4 755.12 447.09L804.78 428.03C804.78 428.03 816.56 421.4 810.25 399.44C805.25 381.98 791.02 346.24 785.4 332.31L785.23 331.95C783.87 328.58 783.05 326.58 783.05 326.58C780.741 320.221 779.226 313.601 778.54 306.87C778.49 306.34 778.45 305.8 778.41 305.27C779.106 304.978 779.761 304.598 780.36 304.14C780.36 304.14 775.73 257.32 780.36 252.34L780.44 252.25V252.19L780.52 252.09L780.7 251.86L780.92 251.58C781.17 251.25 781.47 250.84 781.81 250.34C784.46 246.46 789.4 237.6 787.98 227.14C787.92 226.687 787.847 226.23 787.76 225.77C787.216 222.933 786.245 220.196 784.88 217.65C784.68 216.59 784.556 215.517 784.51 214.44C784.51 213.83 784.51 213.16 784.51 212.44V212.32C784.51 212.127 784.51 211.933 784.51 211.74V211.6C784.51 211.13 784.59 210.6 784.66 210.16V209.98C784.66 209.8 784.69 209.617 784.75 209.43V209.2C784.75 209.02 784.83 208.84 784.87 208.66V208.47C784.93 208.23 784.99 207.99 785.07 207.75V207.63C785.13 207.43 785.197 207.233 785.27 207.04L785.36 206.81L785.56 206.33L785.66 206.09C785.74 205.91 785.83 205.73 785.92 205.55L785.99 205.4C786.11 205.18 786.237 204.963 786.37 204.75L786.48 204.58L786.81 204.11L786.97 203.9L787.32 203.48L787.48 203.3C787.66 203.11 787.84 202.92 788.04 202.74C793.51 197.74 817.92 160.89 817.92 160.89C817.92 160.89 823.81 152.6 823.81 147.22C824.14 147.1 834.55 112.4 833.5 101.85ZM767.97 411.6C767.37 405.92 766.77 398.88 766.22 391.6L775.74 406.44C775.74 406.44 774.84 410.96 767.97 411.6Z" fill="url(#paint2_linear)"/>
<path id="Vector_72" d="M668.71 408.46C668.71 408.46 663.01 399.46 654.45 407.65C645.89 415.84 639.79 443.08 639.79 443.08C639.79 443.08 636.53 465.08 647.53 459.37C647.53 459.37 660.53 441.04 664.23 440.23C667.93 439.42 671.97 429.23 671.97 429.23L668.71 408.46Z" fill="#493545"/>
<path id="Vector_73" d="M729.8 430.45C729.8 430.45 722.06 426.78 719.62 429.64C717.18 432.5 709.03 461 709.03 461C709.03 461 706.59 479.74 714.73 478.92C722.87 478.1 737.13 448.76 737.13 448.76L729.8 430.45Z" fill="#493545"/>
<path id="Vector_74" opacity="0.05" d="M729.8 430.45C729.8 430.45 722.06 426.78 719.62 429.64C717.18 432.5 709.03 461 709.03 461C709.03 461 706.59 479.74 714.73 478.92C722.87 478.1 737.13 448.76 737.13 448.76L729.8 430.45Z" fill="black"/>
<path id="Vector_75" d="M756.68 375.06L774.19 402.35C774.19 402.35 772.97 408.46 762.38 407.24L726.13 430.05C726.13 430.05 722.98 457.82 733.05 455.3C734.68 454.89 746.05 443.08 754.23 443.9L802.3 425.16C802.3 425.16 813.7 418.64 807.59 397.06C801.48 375.48 781.28 325.44 781.28 325.44L749.35 343.3L756.68 375.06Z" fill="#3E3D77"/>
<path id="Vector_76" opacity="0.05" d="M756.68 375.06L774.19 402.35C774.19 402.35 772.97 408.46 762.38 407.24L726.13 430.05C726.13 430.05 722.98 457.82 733.05 455.3C734.68 454.89 746.05 443.08 754.23 443.9L802.3 425.16C802.3 425.16 813.7 418.64 807.59 397.06C801.48 375.48 781.28 325.44 781.28 325.44L749.35 343.3L756.68 375.06Z" fill="black"/>
<path id="Vector_77" d="M767.68 415.38C770.12 430.86 756.28 432.08 756.28 432.08C756.28 432.08 693.96 433.3 686.63 431.67C679.3 430.04 669.52 434.52 669.52 434.52C656.89 426.78 667.08 407.64 667.08 407.64C667.08 407.64 693.15 406.83 699.26 405.64C705.37 404.45 736.32 402.76 736.32 402.76C736.32 402.76 733.88 387.69 717.58 349.41C706.51 323.41 714.58 308.11 720.95 300.98C722.576 299.088 724.457 297.432 726.54 296.06L776.64 298.5C776.586 301.027 776.68 303.554 776.92 306.07C777.777 314.707 780.022 323.149 783.57 331.07C780.72 331.07 762.39 348.18 762.39 348.18C762.39 348.18 765.23 399.91 767.68 415.38Z" fill="#3E3D77"/>
<path id="Vector_78" opacity="0.1" d="M670.74 409.27C670.74 409.27 696.81 408.46 702.92 407.27C709.03 406.08 739.98 404.42 739.98 404.42C739.98 404.42 737.54 389.35 721.24 351.07C710.17 325.07 718.24 309.77 724.61 302.64C726.236 300.748 728.117 299.092 730.2 297.72L776.62 299.98C776.62 299.5 776.62 298.98 776.62 298.53L726.52 296.09C724.437 297.462 722.556 299.118 720.93 301.01C714.59 308.15 706.49 323.44 717.56 349.44C733.9 387.69 736.32 402.76 736.32 402.76C736.32 402.76 705.32 404.39 699.26 405.61C693.2 406.83 667.08 407.61 667.08 407.61C667.08 407.61 656.9 426.76 669.52 434.53C669.52 434.53 669.9 434.35 670.52 434.09C662.13 425.46 670.74 409.27 670.74 409.27Z" fill="black"/>
<path id="Vector_79" d="M745.27 146.57H720.02V210.51H745.27V146.57Z" fill="#493545"/>
<path id="Vector_80" opacity="0.1" d="M745.27 146.57H720.02V210.51H745.27V146.57Z" fill="black"/>
<path id="Vector_81" d="M759.71 137.19C760.58 137.43 761.56 137.46 762.15 138.66C762.516 139.619 762.716 140.634 762.74 141.66L764.33 161.42C764.352 162.714 764.603 163.993 765.07 165.2C765.74 166.54 766.85 166.7 767.72 167.56C769.47 169.3 769.98 173.66 769.5 177.21C769.02 180.76 767.81 183.8 766.86 187.01C765.5 191.61 764.6 196.78 762.69 200.66C760.78 204.54 757.31 206.66 755.07 203.4C752.83 200.14 753.13 193.56 752.71 188.17C752.01 179.17 748.5 171.41 748.26 162.35C748.06 155.02 750.03 148.18 751.26 141.23C752.14 136.46 752.19 130.67 753.47 126.38C754.54 131.48 756.58 136.33 759.71 137.19Z" fill="#493545"/>
<path id="Vector_82" opacity="0.1" d="M759.71 137.19C760.58 137.43 761.56 137.46 762.15 138.66C762.516 139.619 762.716 140.634 762.74 141.66L764.33 161.42C764.352 162.714 764.603 163.993 765.07 165.2C765.74 166.54 766.85 166.7 767.72 167.56C769.47 169.3 769.98 173.66 769.5 177.21C769.02 180.76 767.81 183.8 766.86 187.01C765.5 191.61 764.6 196.78 762.69 200.66C760.78 204.54 757.31 206.66 755.07 203.4C752.83 200.14 753.13 193.56 752.71 188.17C752.01 179.17 748.5 171.41 748.26 162.35C748.06 155.02 750.03 148.18 751.26 141.23C752.14 136.46 752.19 130.67 753.47 126.38C754.54 131.48 756.58 136.33 759.71 137.19Z" fill="black"/>
<path id="Vector_83" d="M652.82 109.1L643.05 117.25C643.05 117.25 641.89 115.89 640.16 113.69C633.37 105.02 617.76 83.27 628.79 79.38C639.82 75.49 648.54 96.7 651.62 105.46C652.4 107.68 652.82 109.1 652.82 109.1Z" fill="#C77485"/>
<path id="Vector_84" d="M829.18 106.25C825.11 112.36 819.41 106.25 819.41 106.25C819.41 106.25 818.68 105.16 817.65 103.4C814.3 97.73 807.73 85.16 812.08 80.18C817.08 74.49 829.47 93.91 829.85 103.02C829.968 104.14 829.734 105.269 829.18 106.25V106.25Z" fill="#C77485"/>
<path id="Vector_85" d="M728.98 172.23C728.98 172.23 737.13 198.3 734.68 206.03C732.23 213.76 752.2 222.76 752.2 222.76H775.01C775.01 222.76 783.16 206.06 781.12 201.17C779.08 196.28 761.57 192.62 761.57 192.62C761.57 192.62 751.39 192.62 751.8 165.33L728.98 172.23Z" fill="#C77485"/>
<path id="Vector_86" opacity="0.1" d="M652.82 109.1L643.05 117.25C643.05 117.25 641.89 115.89 640.16 113.69C643.71 113.06 649.22 107.88 651.63 105.46C652.4 107.68 652.82 109.1 652.82 109.1Z" fill="black"/>
<path id="Vector_87" opacity="0.1" d="M829.18 106.25C825.11 112.36 819.41 106.25 819.41 106.25C819.41 106.25 818.68 105.16 817.65 103.4L817.78 102.99C820.42 104.88 828.63 103.27 829.85 102.99C829.974 104.12 829.74 105.26 829.18 106.25V106.25Z" fill="black"/>
<path id="Vector_88" opacity="0.1" d="M776.9 306.06C764.3 311.81 723.36 301.57 720.9 300.96C722.526 299.068 724.407 297.412 726.49 296.04L776.59 298.48C776.546 301.011 776.649 303.542 776.9 306.06V306.06Z" fill="black"/>
<path id="Vector_89" d="M734.28 194.63C734.28 194.63 724.51 197.89 710.66 185.26C710.66 185.26 679.66 154.71 677.66 147.38L653.66 105.38C653.66 105.38 643.48 116.38 639.4 114.75L666.28 161.59C666.28 161.59 671.17 170.59 675.65 172.99C675.65 172.99 709.05 215.76 709.45 224.31C709.85 232.86 724.5 255.76 724.5 255.76C724.5 255.76 729.39 292.82 720.83 299.34C720.83 299.34 768.48 311.56 778.66 303.41C778.66 303.41 774.18 257.41 778.66 252.5C778.66 252.5 792.51 236.21 783.14 218.29C783.14 218.29 781.14 208.52 786.4 203.63C791.66 198.74 815.32 162.49 815.32 162.49C815.32 162.49 821.02 154.34 821.02 149.05C821.02 149.05 831.61 113.21 830.02 103.84C830.02 103.84 820.65 105.84 817.8 103.84C817.8 103.84 803.95 145.84 802.32 147.42C800.69 149 789.32 182.04 774.22 185.71C759.12 189.38 756.71 191 756.71 191C756.71 191 786.03 209.33 771.78 217.47C757.53 225.61 734.28 194.63 734.28 194.63Z" fill="#FFAAC4"/>
<path id="Vector_90" opacity="0.1" d="M752.79 178.5C752.306 174.663 752.109 170.796 752.2 166.93L729.39 173.85C729.99 175.37 730.468 176.934 730.82 178.53C733.43 179.68 736.95 182.4 739.98 182.4C744.563 182.55 749.068 181.179 752.79 178.5V178.5Z" fill="black"/>
<path id="Vector_91" d="M739.57 181.19C751.267 181.19 760.75 171.707 760.75 160.01C760.75 148.313 751.267 138.83 739.57 138.83C727.873 138.83 718.39 148.313 718.39 160.01C718.39 171.707 727.873 181.19 739.57 181.19Z" fill="#C77485"/>
<path id="Vector_92" opacity="0.1" d="M714.37 127.38C709.71 127.74 704.51 130.96 704.77 135.63C704.91 138.2 706.67 140.37 707.44 142.83C709.29 148.78 705.17 154.75 701.55 159.83C697.93 164.91 694.55 171.64 697.65 177.02C698.534 178.315 699.488 179.561 700.51 180.75C704.34 185.92 704.29 192.9 705.99 199.11C708.161 207.055 713.293 213.866 720.331 218.144C727.369 222.422 735.778 223.841 743.83 222.11C740.799 218.241 739.287 213.397 739.58 208.49C739.81 204.93 740.96 201.21 739.58 197.92C737.8 193.69 732.58 192.02 729.89 188.32C727.2 184.62 727.38 179.49 728.68 175.08C729.98 170.67 732.23 166.58 733.31 162.08C733.577 160.767 733.91 159.469 734.31 158.19C736.19 152.85 741.81 149.75 747.31 148.42C752.81 147.09 758.59 147.01 763.96 145.26C769.33 143.51 774.55 139.41 775.17 133.78C770.65 135.59 766.46 130.87 762.1 128.7C754.92 125.14 746.73 128.49 739.33 129.31C730.9 130.25 722.9 126.76 714.37 127.38Z" fill="black"/>
<path id="Vector_93" d="M713.96 126.57C709.3 126.93 704.1 130.15 704.36 134.82C704.5 137.39 706.26 139.56 707.03 142.02C708.88 147.97 704.76 153.94 701.14 159.02C697.52 164.1 694.14 170.83 697.24 176.21C698.124 177.505 699.078 178.751 700.1 179.94C703.93 185.11 703.88 192.09 705.58 198.3C707.751 206.245 712.883 213.056 719.921 217.334C726.959 221.612 735.368 223.031 743.42 221.3C740.389 217.431 738.877 212.587 739.17 207.68C739.4 204.12 740.55 200.4 739.17 197.11C737.39 192.88 732.17 191.21 729.48 187.51C726.79 183.81 726.97 178.68 728.27 174.27C729.57 169.86 731.82 165.77 732.9 161.27C733.167 159.957 733.5 158.659 733.9 157.38C735.78 152.04 741.4 148.94 746.9 147.61C752.4 146.28 758.18 146.2 763.55 144.45C768.92 142.7 774.14 138.6 774.76 132.97C770.24 134.78 766.05 130.06 761.69 127.89C754.51 124.33 746.32 127.68 738.92 128.5C730.51 129.43 722.54 125.9 713.96 126.57Z" fill="#493545"/>
<path id="Vector_94" opacity="0.1" d="M760.55 207.06C760.55 207.06 769.03 214.63 770.7 217.97Z" fill="black"/>
<path id="Vector_95" opacity="0.1" d="M778.9 252.27C778.9 252.27 768.31 252.27 763.42 253.49C758.53 254.71 746.72 253.49 746.72 253.49" fill="black"/>
<g id="Group_5" opacity="0.1">
<path id="Vector_96" opacity="0.1" d="M771.75 217.44C770.837 217.962 769.849 218.34 768.82 218.56C771.476 219.149 774.256 218.751 776.64 217.44C790.9 209.29 761.57 190.97 761.57 190.97H756.68C756.68 190.97 786.01 209.3 771.75 217.44Z" fill="black"/>
<path id="Vector_97" opacity="0.1" d="M830.09 104.55C830.09 104.29 830.03 104.04 829.99 103.81C828.315 104.157 826.623 104.414 824.92 104.58C826.639 104.769 828.374 104.759 830.09 104.55V104.55Z" fill="black"/>
<path id="Vector_98" opacity="0.1" d="M725.73 299.31C734.28 292.79 729.4 255.73 729.4 255.73C729.4 255.73 714.74 232.92 714.33 224.37C713.92 215.82 680.53 173.05 680.53 173.05C676.05 170.61 671.16 161.65 671.16 161.65C671.16 161.65 643.46 116.44 639.39 114.81L666.27 161.65C666.27 161.65 671.16 170.65 675.64 173.05C675.64 173.05 709.04 215.82 709.44 224.37C709.84 232.92 724.5 255.76 724.5 255.76C724.5 255.76 729.39 292.82 720.83 299.34C720.83 299.34 750.12 306.85 767.68 306.17C750.08 305.55 725.73 299.31 725.73 299.31Z" fill="black"/>
<path id="Vector_99" opacity="0.1" d="M734.52 194.95L734.28 194.64C734.001 194.722 733.717 194.786 733.43 194.83C733.81 194.88 734.17 194.92 734.52 194.95Z" fill="black"/>
</g>
</g>
<g id="bg">
<path id="Vector_100" opacity="0.1" d="M89.45 160.67C108.97 204.76 84.07 255.53 54.76 293.76C44.95 306.58 34.12 320.02 32.76 336.1C31.12 355.77 44.44 373.85 60.24 385.67C89.06 407.21 128.42 413.87 162.72 403C192.36 393.61 217.28 372.4 247.18 363.85C297.18 349.53 350.18 373.27 393 402.85C423.31 423.76 455.77 449.24 492.31 444.76C518.02 441.61 539.84 423.56 554.65 402.31C561.8 392.05 568.02 380.55 578.43 373.63C584.62 369.51 591.89 367.33 599.16 365.77C665.55 351.58 736.01 386.21 801.52 368.4C845.77 356.4 881.05 321.4 902.99 281.13C924.93 240.86 935.17 195.39 943.7 150.34C949.76 118.34 954.79 83.77 940.86 54.34C926.12 23.18 892 4.29 857.71 0.750002C823.42 -2.79 789.03 6.98 757.44 20.76C717.97 38.02 679.28 62.18 636.2 62.26C606.86 62.32 578.88 51.06 550.83 42.47C503.93 28.12 455.16 20.99 406.56 14.41C360.03 8.11 313.04 2.25 266.23 5.97C233.11 8.6 203.86 21.26 171.72 27.12C150.77 30.94 129.72 28.12 109.16 34.52C83.84 42.44 57.8 60.79 56.4 89.69C55.08 117.2 79.1 137.28 89.45 160.67Z" fill="#FB37FF"/>
<path id="Vector_101" opacity="0.1" d="M469.79 661.52C705.986 661.52 897.46 643.128 897.46 620.44C897.46 597.752 705.986 579.36 469.79 579.36C233.594 579.36 42.12 597.752 42.12 620.44C42.12 643.128 233.594 661.52 469.79 661.52Z" fill="#FB37FF"/>
</g>
</g>
<defs>
<linearGradient id="paint0_linear" x1="382.874" y1="473.353" x2="382.874" y2="473.305" gradientUnits="userSpaceOnUse">
<stop stop-color="#808080" stop-opacity="0.25"/>
<stop offset="0.54" stop-color="#808080" stop-opacity="0.12"/>
<stop offset="1" stop-color="#808080" stop-opacity="0.1"/>
</linearGradient>
<linearGradient id="paint1_linear" x1="64395.6" y1="202199" x2="64395.6" y2="90655.5" gradientUnits="userSpaceOnUse">
<stop stop-color="#808080" stop-opacity="0.25"/>
<stop offset="0.54" stop-color="#808080" stop-opacity="0.12"/>
<stop offset="1" stop-color="#808080" stop-opacity="0.1"/>
</linearGradient>
<linearGradient id="paint2_linear" x1="181402" y1="245104" x2="181402" y2="79445.4" gradientUnits="userSpaceOnUse">
<stop stop-color="#808080" stop-opacity="0.25"/>
<stop offset="0.54" stop-color="#808080" stop-opacity="0.12"/>
<stop offset="1" stop-color="#808080" stop-opacity="0.1"/>
</linearGradient>
<clipPath id="clip0">
<rect width="949.8" height="661.52" fill="white"/>
</clipPath>
</defs>
</svg>
