<svg width="1168" height="780" viewBox="0 0 1168 780" fill="none" xmlns="http://www.w3.org/2000/svg">
<g id="undraw_image_post_24iy 1" clip-path="url(#clip0)">
<g id="background">
<path id="Vector" opacity="0.1" d="M168.996 779C248.131 779 312.283 762.755 312.283 742.715C312.283 722.675 248.131 706.43 168.996 706.43C89.8606 706.43 25.7089 722.675 25.7089 742.715C25.7089 762.755 89.8606 779 168.996 779Z" fill="#6C63FF"/>
<path id="Vector_2" d="M1142.66 0H10.0895C8.76202 0.00153518 7.44785 0.265109 6.22215 0.775652C4.99644 1.28619 3.88323 2.03369 2.94618 2.9754C2.00913 3.91711 1.26662 5.03458 0.7611 6.26389C0.255576 7.49319 -0.00304354 8.81022 3.02384e-05 10.1397V704.322C-0.00457965 707.002 0.517942 709.657 1.53776 712.135C2.55758 714.613 4.05472 716.865 5.94371 718.763C7.8327 720.662 10.0765 722.169 12.5471 723.199C15.0177 724.228 17.6666 724.761 20.3427 724.765H1132.41C1135.08 724.761 1137.73 724.228 1140.2 723.199C1142.67 722.169 1144.92 720.662 1146.81 718.763C1148.69 716.865 1150.19 714.613 1151.21 712.135C1152.23 709.657 1152.75 707.002 1152.75 704.322V10.1397C1152.75 7.45561 1151.69 4.88006 1149.8 2.97883C1147.91 1.07761 1145.34 0.00620418 1142.66 0V0Z" fill="url(#paint0_linear)"/>
<path id="Vector_3" opacity="0.1" d="M1023.03 778.508C1103.09 778.508 1168 763.844 1168 745.754C1168 727.665 1103.09 713 1023.03 713C942.965 713 878.059 727.665 878.059 745.754C878.059 763.844 942.965 778.508 1023.03 778.508Z" fill="#6C63FF"/>
<path id="Vector_4" d="M1148.17 43.0878V700.236C1148.17 705.594 1146.04 710.732 1142.26 714.522C1138.48 718.311 1133.35 720.442 1128 720.445H24.949C19.5972 720.445 14.4646 718.316 10.6803 714.526C6.89601 710.736 4.77002 705.596 4.77002 700.236V43.0878H1148.17Z" fill="white"/>
<path id="Vector_5" d="M155.493 35.1259V720.445H24.949C19.5972 720.445 14.4646 718.316 10.6803 714.526C6.89601 710.736 4.77002 705.596 4.77002 700.236V35.1845L155.493 35.1259Z" fill="#D7D9E1"/>
<path id="Vector_6" d="M1148.17 13.8982V43.0879H4.77002V13.8982C4.77002 11.2401 5.82439 8.69077 7.70119 6.81117C9.57798 4.93157 12.1235 3.87561 14.7777 3.87561H1138.16C1140.81 3.87561 1143.36 4.93157 1145.24 6.81117C1147.11 8.69077 1148.17 11.2401 1148.17 13.8982Z" fill="#EDEDF4"/>
<path id="Vector_7" opacity="0.8" d="M22.8913 27.8783C25.4741 27.8783 27.5678 25.7814 27.5678 23.1948C27.5678 20.6082 25.4741 18.5114 22.8913 18.5114C20.3086 18.5114 18.2149 20.6082 18.2149 23.1948C18.2149 25.7814 20.3086 27.8783 22.8913 27.8783Z" fill="#FA5959"/>
<path id="Vector_8" opacity="0.8" d="M35.7516 27.8783C38.3343 27.8783 40.4281 25.7814 40.4281 23.1948C40.4281 20.6082 38.3343 18.5114 35.7516 18.5114C33.1689 18.5114 31.0751 20.6082 31.0751 23.1948C31.0751 25.7814 33.1689 27.8783 35.7516 27.8783Z" fill="#FED253"/>
<path id="Vector_9" opacity="0.8" d="M48.6119 27.8783C51.1946 27.8783 53.2884 25.7814 53.2884 23.1948C53.2884 20.6082 51.1946 18.5114 48.6119 18.5114C46.0292 18.5114 43.9354 20.6082 43.9354 23.1948C43.9354 25.7814 46.0292 27.8783 48.6119 27.8783Z" fill="#8CCF4D"/>
<path id="Vector_10" d="M129.772 100.694H19.8749V112.403H129.772V100.694Z" fill="#EDEDF4"/>
<path id="Vector_11" d="M129.772 134.649H19.8749V146.358H129.772V134.649Z" fill="#EDEDF4"/>
<path id="Vector_12" d="M129.772 168.605H19.8749V180.313H129.772V168.605Z" fill="#EDEDF4"/>
<path id="Vector_13" d="M129.772 202.56H19.8749V214.268H129.772V202.56Z" fill="#EDEDF4"/>
<path id="Vector_14" d="M129.772 236.515H19.8749V248.223H129.772V236.515Z" fill="#EDEDF4"/>
<path id="Vector_15" opacity="0.1" d="M972.507 120.974H327.154V523.751H972.507V120.974Z" fill="#6C63FF"/>
<path id="Vector_16" d="M928.08 151.721H276.882V563.256H928.08V151.721Z" fill="#D7D9E1"/>
<path id="Vector_17" d="M925.742 156.1H280.389V558.877H925.742V156.1Z" fill="white"/>
</g>
<g id="female">
<path id="Vector_18" d="M305.926 670.746C303.576 666.186 298.376 663.926 293.526 662.146C288.676 660.366 283.526 658.656 278.426 657.146C284.626 651.586 289.536 644.696 293.996 637.666C296.546 633.666 298.996 629.476 300.216 624.896C301.436 620.316 301.316 615.186 298.896 611.086C296.026 606.216 290.346 603.496 284.686 602.816C279.026 602.136 273.326 603.186 267.746 604.296C263.746 605.096 259.746 605.929 255.746 606.796C258.086 605.664 260.366 604.413 262.576 603.046C270.816 597.936 278.056 591.396 284.926 584.576C287.096 582.416 289.396 579.876 289.336 576.826C289.276 574.006 287.086 571.536 284.446 570.476C281.735 569.551 278.812 569.436 276.036 570.146C272.278 570.947 268.721 572.504 265.584 574.724C262.446 576.943 259.793 579.778 257.786 583.056C256.406 585.356 255.326 587.906 253.416 589.806C251.146 592.056 247.556 592.946 245.036 590.646C244.163 589.671 243.526 588.507 243.176 587.246L243.306 587.076C248.306 579.806 248.676 569.946 245.376 561.756C242.866 555.506 238.526 550.236 234.166 545.016C238.07 542.267 242.324 540.053 246.816 538.436C248.058 538.078 249.235 537.528 250.306 536.806C252.436 535.176 253.086 532.256 253.126 529.586C253.166 526.916 252.746 524.286 253.306 521.716C255.993 522.557 258.791 522.986 261.606 522.986C266.895 522.997 272.073 521.472 276.511 518.596C280.949 515.72 284.456 511.617 286.606 506.786C291.556 505.506 296.386 503.426 299.956 499.786C304.356 495.336 307.066 486.696 302.366 481.486C300.816 479.776 298.466 479.026 296.566 477.796C293.566 475.796 291.566 473.346 289.466 470.476C280.176 457.966 266.866 455.656 251.876 457.326C245.136 458.076 238.376 459.326 232.176 462.066C227.436 464.32 222.928 467.033 218.716 470.166C218.036 470.646 217.346 471.166 216.716 471.636C215.506 467.916 213.886 464.256 212.926 461.316C212.429 460.11 212.221 458.806 212.316 457.506C212.636 455.316 214.516 453.726 216.316 452.346L241.726 432.426C244.398 430.207 247.251 428.217 250.256 426.476C259.016 421.736 270.096 421.166 277.436 414.476C279.55 412.529 281.232 410.161 282.372 407.524C283.512 404.886 284.086 402.039 284.056 399.166C283.976 395.036 282.056 390.406 278.056 389.266C273.856 388.066 269.756 391.156 266.516 394.046C255.886 403.516 245.286 413.106 233.426 421.046C222.206 428.516 209.846 434.486 199.866 443.506C198.044 445.038 196.478 446.85 195.226 448.876C193.999 451.312 193.153 453.923 192.716 456.616L190.646 466.356C188.976 474.196 187.646 483.286 192.396 489.576C192.098 490.17 191.85 490.789 191.656 491.426C190.936 493.856 192.256 496.426 191.656 498.546C190.996 500.926 187.366 503.546 185.746 505.436C183.506 508.036 181.346 510.726 179.286 513.436C171.336 524.224 164.504 535.794 158.896 547.966C150.306 566.226 143.896 585.386 137.436 604.496C136.306 607.876 135.156 611.326 135.126 614.896C135.138 618.134 136.082 621.3 137.846 624.016C136.126 634.146 131.786 643.826 131.636 654.196L130.066 654.906C129.386 664.536 134.066 674.136 138.066 682.906C140.376 687.906 143.156 693.296 148.296 695.346C150.926 696.346 153.836 696.406 156.666 696.346C159.956 696.346 162.986 696.406 165.976 696.476H165.596C161.996 697.076 157.996 698.476 156.596 701.806C156.014 703.613 155.874 705.533 156.186 707.406C157.346 720.546 158.503 733.686 159.656 746.826C159.906 749.736 160.266 752.876 162.256 755.036C164.076 757.036 166.886 757.716 169.556 758.136C174.561 758.904 179.65 758.948 184.666 758.266C186.775 758.118 188.811 757.429 190.576 756.266C192.246 754.996 193.286 752.696 192.466 750.766C191.306 748.016 187.406 747.626 185.466 745.356C182.926 742.426 184.616 737.946 186.386 734.506C186.656 733.976 186.976 733.416 187.306 732.846C189.068 735.486 191.166 737.886 193.546 739.986C195.496 741.696 198.286 742.906 200.546 741.706C206.086 738.819 211.66 735.986 217.266 733.206L218.566 733.386C229.44 734.873 240.415 735.492 251.386 735.236C253.47 735.316 255.547 734.947 257.476 734.156C259.346 733.236 260.846 731.276 260.556 729.236C260.216 726.766 257.606 725.316 255.246 724.446C250.796 722.824 246.134 721.857 241.406 721.576C247.533 718.656 253.676 715.749 259.836 712.856C265.986 709.956 272.196 707.036 278.836 705.376C287.346 703.246 297.316 702.726 302.836 695.946C306.146 691.846 306.956 686.346 307.306 681.106C307.496 677.586 307.546 673.926 305.926 670.746ZM219.516 615.506C216.516 616.296 213.126 617.126 209.696 618.146C209.376 615.526 208.876 612.916 208.556 610.306C208.383 609.503 208.456 608.666 208.766 607.906C209.271 607.177 209.986 606.619 210.816 606.306L222.256 600.706C222.263 599.659 222.055 598.623 221.645 597.66C221.236 596.696 220.634 595.827 219.876 595.106C220.985 595.52 222.135 595.815 223.306 595.986C224.464 601.003 226.65 605.726 229.726 609.856C230.389 610.836 231.31 611.615 232.386 612.106L232.566 612.156C228.206 613.236 223.856 614.352 219.516 615.506Z" fill="url(#paint1_linear)"/>
<path id="Vector_19" d="M230.446 504.366C224.766 506.036 218.446 504.656 213.396 501.636C212.395 500.927 211.273 500.406 210.086 500.096C208.016 499.726 205.966 500.906 204.466 502.386C199.596 507.226 199.036 515.226 201.556 521.606C204.076 527.986 209.116 533.036 214.416 537.406C218.692 540.929 223.214 544.144 227.946 547.026C229.25 543.971 231.147 541.205 233.528 538.889C235.909 536.574 238.726 534.754 241.816 533.536C247.376 531.386 251.446 525.616 254.636 520.536C256.996 516.806 259.106 516.976 256.976 513.106C254.846 509.236 251.526 506.186 248.546 502.916C246.798 501.082 245.274 499.048 244.006 496.856C242.576 494.306 242.896 492.646 240.706 494.666C239.256 496.016 238.626 498.906 237.006 500.486C235.166 502.291 232.915 503.623 230.446 504.366V504.366Z" fill="#FABDBD"/>
<path id="Vector_20" d="M213.016 464.796C212.535 463.6 212.334 462.311 212.426 461.026C212.736 458.866 214.576 457.296 216.286 455.936L241.106 436.266C243.716 434.082 246.502 432.119 249.436 430.396C257.996 425.716 268.816 425.156 275.986 418.536C278.056 416.606 279.699 414.265 280.812 411.663C281.924 409.061 282.481 406.255 282.446 403.426C282.366 399.356 280.446 394.786 276.576 393.646C272.476 392.466 268.476 395.526 265.306 398.376C254.926 407.716 244.576 417.186 232.986 424.986C221.986 432.366 209.986 438.256 200.216 447.166C198.435 448.677 196.906 450.463 195.686 452.456C194.488 454.867 193.662 457.446 193.236 460.106L191.236 469.716C189.526 477.816 188.146 487.266 193.606 493.486C194.402 494.481 195.406 495.29 196.548 495.855C197.69 496.42 198.942 496.727 200.216 496.756C202.024 496.547 203.767 495.954 205.326 495.016C209.386 492.926 216.696 490.926 217.936 485.926C219.496 479.536 214.926 470.676 213.016 464.796Z" fill="#FABDBD"/>
<path id="Vector_21" d="M252.606 591.586C254.466 589.706 255.526 587.196 256.876 584.926C258.821 581.698 261.405 578.903 264.469 576.71C267.534 574.518 271.014 572.974 274.696 572.176C277.406 571.475 280.263 571.593 282.906 572.516C284.216 572.996 285.362 573.84 286.209 574.949C287.055 576.058 287.568 577.385 287.686 578.776C287.736 581.776 285.496 584.296 283.366 586.426C276.666 593.156 269.596 599.616 261.556 604.656C253.516 609.696 244.386 613.296 234.906 613.926C233.952 614.042 232.984 613.953 232.066 613.666C231.014 613.175 230.115 612.408 229.466 611.446C224.466 604.986 222.686 596.626 221.326 588.556C221.816 591.466 238.156 584.686 240.006 585.556C242.706 586.826 242.446 590.646 244.416 592.466C246.876 594.686 250.386 593.816 252.606 591.586Z" fill="#FABDBD"/>
<path id="Vector_22" d="M133.586 655.346C133.496 656.361 133.697 657.381 134.166 658.286C135.276 660.036 137.796 660.056 139.846 659.756C144.583 658.948 149.261 657.822 153.846 656.386L195.496 644.386C196.156 644.254 196.771 643.958 197.286 643.526C197.716 642.998 197.999 642.367 198.106 641.696C199.565 635.691 199.877 629.466 199.026 623.346C198.979 622.467 198.688 621.618 198.186 620.896C197.247 620.033 196.011 619.567 194.736 619.596C188.211 618.936 181.655 618.635 175.096 618.696C170.842 618.881 166.579 618.791 162.336 618.426C156.856 617.766 150.556 614.626 145.066 615.106C140.296 615.516 140.486 619.236 139.996 623.176C138.626 634.036 133.696 644.286 133.586 655.346Z" fill="#FABDBD"/>
<path id="Vector_23" d="M266.596 605.926C272.046 604.826 277.596 603.776 283.146 604.456C288.696 605.136 294.216 607.816 297.016 612.626C299.376 616.676 299.506 621.726 298.306 626.256C297.106 630.786 294.716 634.896 292.236 638.866C287.236 646.766 281.746 654.486 274.446 660.286C270.906 663.106 266.986 665.436 263.576 668.416C256.306 674.766 251.806 683.636 247.486 692.266C243.416 700.396 239.306 708.656 237.626 717.586C237.607 717.931 237.52 718.268 237.369 718.579C237.217 718.89 237.006 719.168 236.746 719.396C236.182 719.656 235.541 719.699 234.946 719.516L214.946 715.826C214.039 715.77 213.175 715.419 212.486 714.826C211.636 713.826 211.856 712.386 212.146 711.126C216.479 692.49 224.589 674.941 235.976 659.566C230.681 664.565 224.27 668.23 217.276 670.256C210.281 672.282 202.904 672.611 195.756 671.216C192.967 670.807 190.334 669.669 188.126 667.916C183.666 663.916 183.876 656.916 184.866 651.026C185.759 645.764 186.995 640.566 188.566 635.466C192.386 623.236 208.526 619.926 219.496 616.926C235.076 612.766 250.776 609.099 266.596 605.926Z" fill="#3F3D56"/>
<path id="Vector_24" opacity="0.1" d="M251.816 649.036C249.046 650.336 246.216 651.746 244.206 654.036C247.806 649.896 258.066 647.966 263.106 646.036C269.336 643.706 276.106 641.346 281.426 637.216C271.282 640.43 261.386 644.381 251.816 649.036Z" fill="black"/>
<path id="Vector_25" d="M187.086 734.566C185.346 737.956 183.706 742.376 186.186 745.276C188.106 747.516 191.916 747.896 193.056 750.616C193.846 752.516 192.836 754.786 191.206 756.046C189.488 757.199 187.5 757.888 185.436 758.046C180.536 758.718 175.564 758.674 170.676 757.916C168.066 757.506 165.326 756.806 163.546 754.856C161.596 752.726 161.256 749.626 161.006 746.756C159.88 733.789 158.753 720.819 157.626 707.846C157.312 705.994 157.446 704.095 158.016 702.306C159.366 699.006 163.266 697.636 166.786 697.046C170.734 696.386 174.749 696.225 178.736 696.566C181.426 696.796 184.266 697.326 186.256 699.146C188.496 701.146 189.206 704.366 189.786 707.346C190.696 711.966 193.246 718.346 192.706 723.066C192.266 726.846 188.786 731.156 187.086 734.566Z" fill="#D663FF"/>
<path id="Vector_26" d="M231.886 721.986C239.481 720.988 247.203 721.857 254.386 724.516C256.696 725.376 259.236 726.796 259.576 729.236C259.856 731.236 258.386 733.236 256.576 734.096C254.677 734.881 252.63 735.246 250.576 735.166C239.844 735.456 229.107 734.884 218.466 733.456C215.726 733.086 212.886 732.616 210.646 730.996C208.406 729.376 207.006 726.266 208.196 723.776C209.476 721.116 212.976 720.276 214.656 717.856C215.876 716.106 216.176 713.546 218.086 712.626C219.436 711.976 221.086 712.466 222.446 712.956C224.446 713.666 229.336 714.376 230.746 716.056C231.386 716.766 231.936 721.976 231.886 721.986Z" fill="#D663FF"/>
<path id="Vector_27" d="M260.606 525.646C275.319 525.646 287.246 513.718 287.246 499.006C287.246 484.293 275.319 472.366 260.606 472.366C245.893 472.366 233.966 484.293 233.966 499.006C233.966 513.718 245.893 525.646 260.606 525.646Z" fill="#FABDBD"/>
<path id="Vector_28" d="M197.386 487.256C201.676 484.126 207.076 483.056 212.296 482.066C214.086 481.726 216.066 481.416 217.646 482.336C218.772 483.142 219.66 484.237 220.216 485.506C221.844 488.106 223.049 490.948 223.786 493.926C224.346 496.926 223.786 500.306 221.696 502.496C220.116 504.136 217.846 504.946 216.226 506.496C213.986 508.706 213.336 512.146 213.836 515.246C214.483 518.332 215.682 521.276 217.376 523.936C221.295 530.819 225.756 537.38 230.716 543.556C235.886 549.996 241.716 556.176 244.716 563.846C247.936 571.936 247.606 581.666 242.716 588.846C237.826 596.026 227.976 599.846 219.836 596.786C220.578 597.501 221.166 598.358 221.567 599.307C221.967 600.256 222.171 601.276 222.166 602.306L211.006 607.926C210.195 608.238 209.498 608.789 209.006 609.506C208.705 610.258 208.635 611.083 208.806 611.876C209.356 616.416 210.476 620.946 210.166 625.516C209.856 630.086 207.766 634.896 203.636 636.876C199.826 638.706 195.336 637.736 191.196 636.876C181.519 634.924 171.678 633.896 161.806 633.806C156.906 633.806 151.806 633.926 147.306 632.026C144.271 630.687 141.686 628.502 139.86 625.731C138.035 622.961 137.048 619.723 137.016 616.406C137.016 612.886 138.166 609.486 139.276 606.146C145.546 587.276 151.836 568.356 160.276 550.336C165.746 538.328 172.42 526.906 180.196 516.246C182.196 513.539 184.3 510.896 186.506 508.316C188.076 506.466 191.626 503.866 192.266 501.516C192.846 499.406 191.556 496.886 192.266 494.516C193.152 491.61 194.947 489.065 197.386 487.256V487.256Z" fill="#D663FF"/>
<path id="Vector_29" d="M132.056 655.926C143.736 650.536 155.436 645.136 167.586 640.926C176.586 637.836 186.516 635.436 195.306 638.926C197.926 639.926 200.306 641.506 202.866 642.746C211.376 646.876 221.106 647.476 230.516 648.526C251.448 650.863 272.018 655.732 291.776 663.026C296.516 664.776 301.596 667.026 303.886 671.516C305.466 674.616 305.426 678.266 305.196 681.736C304.846 686.906 304.056 692.346 300.826 696.386C295.476 703.086 285.736 703.586 277.426 705.696C270.976 707.336 264.916 710.216 258.906 713.076C239.456 722.346 220.006 731.616 200.906 741.676C198.656 742.866 195.906 741.676 194.036 739.986C188.196 734.826 184.296 727.726 182.036 720.266C179.776 712.806 179.126 704.956 178.986 697.176C171.526 697.176 165.456 696.836 157.986 696.856C155.226 696.856 152.376 696.856 149.816 695.856C144.816 693.856 142.076 688.496 139.816 683.576C135.936 674.866 131.386 665.386 132.056 655.926Z" fill="#3F3D56"/>
<path id="Vector_30" opacity="0.1" d="M267.766 683.636C262.496 681.076 256.406 681.006 250.546 681.066C246.976 680.996 243.407 681.264 239.886 681.866C234.386 682.926 229.386 685.576 224.276 687.726C211.83 692.942 198.451 695.569 184.956 695.446" fill="black"/>
<path id="Vector_31" d="M298.056 502.766C294.256 506.636 288.996 508.766 283.706 509.966C278.416 511.166 272.976 511.656 267.706 512.826C261.176 514.266 254.016 517.726 252.546 524.256C251.966 526.826 252.386 529.506 252.346 532.146C252.306 534.786 251.676 537.656 249.596 539.276C248.55 539.984 247.399 540.523 246.186 540.876C224.856 548.606 209.546 570.606 209.726 593.296C206.382 591.353 203.519 588.68 201.351 585.477C199.183 582.274 197.767 578.623 197.206 574.796C197.206 581.856 191.206 589.086 194.556 595.296C190.782 592.849 187.56 589.642 185.096 585.879C182.632 582.117 180.979 577.882 180.244 573.444C179.509 569.007 179.708 564.466 180.827 560.109C181.947 555.753 183.963 551.679 186.746 548.146C189.436 544.726 192.746 541.896 195.646 538.626C199.613 534.029 202.589 528.664 204.39 522.866C206.192 517.068 206.779 510.961 206.116 504.926C205.536 499.786 204.036 494.586 205.116 489.546C206.686 482.546 212.836 477.666 218.686 473.546C222.791 470.451 227.193 467.771 231.826 465.546C237.886 462.846 244.486 461.546 251.066 460.856C265.706 459.206 278.706 461.486 287.776 473.856C289.856 476.696 291.776 479.146 294.716 481.086C296.566 482.296 298.866 483.086 300.376 484.726C305.006 489.836 302.386 498.376 298.056 502.766Z" fill="#3F3D56"/>
</g>
<g id="male">
<path id="Vector_32" d="M1011.49 343.919C1011.49 343.919 1008.81 353.478 1014.16 356.954C1019.51 360.43 1021.29 376.942 1021.29 376.942L1010.6 405.619L982.075 410.833L971.38 390.846V361.299C971.38 361.299 974.945 346.526 974.054 342.181C973.163 337.836 1011.49 343.919 1011.49 343.919Z" fill="#FFB9B9"/>
<path id="Vector_33" opacity="0.2" d="M1011.49 343.919C1011.49 343.919 1008.81 353.478 1014.16 356.954C1019.51 360.43 1021.29 376.942 1021.29 376.942L1010.6 405.619L982.075 410.833L971.38 390.846V361.299C971.38 361.299 974.945 346.526 974.054 342.181C973.163 337.836 1011.49 343.919 1011.49 343.919Z" fill="black"/>
<path id="Vector_34" d="M1040.01 508.164L1063.18 512.509C1063.18 512.509 1064.96 537.71 1063.18 543.793C1061.4 549.876 1059.61 556.829 1061.4 558.567C1063.18 560.305 1053.38 604.625 1054.27 607.232C1055.16 609.839 1056.94 617.66 1056.05 622.874C1055.16 628.088 1052.48 626.35 1054.27 631.564C1056.05 636.778 1057.83 637.647 1056.05 641.123C1054.27 644.599 1045.35 728.894 1042.68 729.763C1040.01 730.632 1015.94 731.501 1015.94 729.763C1015.94 728.025 1023.96 714.99 1021.29 711.514C1018.62 708.038 1022.18 648.945 1022.18 646.337C1022.18 643.73 1027.53 639.385 1024.86 637.647C1022.18 635.909 1020.4 634.171 1021.29 631.564C1022.18 628.957 1023.96 628.088 1022.18 625.481C1020.4 622.874 1020.4 570.733 1014.16 568.995C1014.16 568.995 1006.14 607.232 1008.81 616.791C1011.49 626.35 1007.92 629.826 1007.92 629.826L1020.4 640.254L1003.47 671.539L985.64 651.552C985.64 651.552 985.64 646.337 982.075 645.468C978.51 644.599 976.728 643.73 976.728 641.123C976.728 638.516 970.489 622.005 970.489 622.005C970.489 622.005 952.664 567.257 961.577 539.448C970.489 511.64 973.923 512.56 973.923 512.56L1040.01 508.164Z" fill="#2F2E41"/>
<path id="Vector_35" d="M1054.27 688.05L1064.07 698.478L1060.51 727.156H1052.48L1040.01 700.217L1054.27 688.05Z" fill="#FFB9B9"/>
<path id="Vector_36" d="M1060.51 707.169C1060.51 707.169 1056.94 714.99 1054.27 713.252C1051.59 711.514 1050.71 708.907 1046.69 708.907C1042.68 708.907 1039.12 709.776 1040.01 711.514C1040.9 713.252 1051.59 732.37 1051.59 732.37C1053.16 735.634 1053.98 739.194 1053.98 742.799C1053.98 746.403 1053.16 749.963 1051.59 753.227C1046.25 764.524 1065.85 770.607 1069.42 758.441C1072.98 746.275 1073.87 732.37 1072.98 727.156C1072.09 721.942 1077.44 695.003 1077.44 695.003C1077.44 695.003 1063.04 688.531 1058.65 688.29C1058.65 688.29 1062.29 703.693 1060.51 707.169Z" fill="#2F2E41"/>
<path id="Vector_37" d="M1036.44 726.287L1040.01 736.715C1040.01 736.715 1040.01 747.144 1043.57 752.358C1047.14 757.572 1050.7 768.869 1036.44 769.738C1022.18 770.607 1015.94 765.393 1015.94 765.393C1015.94 765.393 1018.62 758.441 1015.94 755.834C1013.27 753.227 1015.94 748.013 1015.94 748.013L1018.62 727.156L1036.44 726.287Z" fill="#2F2E41"/>
<path id="Vector_38" d="M1012.38 639.385H1020.4L1060.51 690.657C1060.51 690.657 1053.38 707.169 1042.68 708.907C1042.68 708.907 1040.9 708.038 1032.88 702.824C1024.86 697.61 1003.47 671.539 1003.47 671.539L1000.79 656.766L1012.38 639.385Z" fill="#2F2E41"/>
<path id="Vector_39" d="M992.77 355.216C1008.52 355.216 1021.29 342.766 1021.29 327.408C1021.29 312.049 1008.52 299.599 992.77 299.599C977.019 299.599 964.25 312.049 964.25 327.408C964.25 342.766 977.019 355.216 992.77 355.216Z" fill="#FFB9B9"/>
<path id="Vector_40" d="M1027.53 363.037L1018.62 359.561C1018.62 359.561 1017.73 389.977 1000.79 389.977C983.858 389.977 966.033 385.632 966.033 376.942C966.033 368.252 951.773 392.584 951.773 392.584C951.773 392.584 965.141 479.486 964.25 480.355C963.359 481.224 974.054 527.282 974.054 527.282C974.054 527.282 1019.51 529.02 1034.66 522.937C1049.81 516.854 1054.27 505.557 1054.27 505.557L1048.03 429.083L1035.55 369.99L1027.53 363.037Z" fill="#6C63FF"/>
<path id="Vector_41" d="M1012.38 355.216C1012.38 355.216 1015.94 351.74 1021.29 355.216C1026.64 358.692 1059.61 366.514 1059.61 369.121V402.143C1059.61 402.143 1060.51 407.357 1057.83 410.833C1055.16 414.31 1048.92 427.345 1052.48 433.428C1056.05 439.511 1069.42 509.902 1066.74 518.592C1064.07 527.282 1056.94 535.103 1056.94 535.103C1056.94 535.103 1018.62 456.022 1018.62 433.428C1018.62 410.833 1018.99 383.114 1018.99 383.114L1012.38 355.216Z" fill="#575A89"/>
<path id="Vector_42" d="M1051.59 369.99H1059.61C1059.61 369.99 1089.92 426.476 1089.92 437.773C1089.92 449.07 1070.31 511.64 1068.53 512.509C1066.74 513.378 1061.4 502.949 1061.4 502.949L1056.94 468.189C1056.94 468.189 1065.85 447.332 1063.18 443.856C1060.51 440.38 1047.14 413.44 1047.14 413.44L1051.59 369.99Z" fill="#575A89"/>
<path id="Vector_43" d="M972.698 355.216C972.698 355.216 962.468 362.168 960.685 364.775C958.903 367.383 932.165 382.156 931.274 385.632C930.382 389.108 951.773 418.655 951.773 418.655C951.773 418.655 960.685 467.32 960.685 470.796C960.685 474.272 964.25 533.365 964.25 533.365C964.25 533.365 1000.79 543.793 1000.79 537.71C1000.79 531.627 1001.68 444.725 996.335 425.607C990.988 406.488 972.698 355.216 972.698 355.216Z" fill="#575A89"/>
<path id="Vector_44" d="M978.51 535.103C978.51 535.103 1008.81 575.078 992.77 574.209C976.728 573.34 966.033 539.448 966.033 539.448L978.51 535.103Z" fill="#FFB9B9"/>
<path id="Vector_45" d="M941.969 383.025L931.274 385.632C931.274 385.632 922.361 462.106 927.709 472.534C933.056 482.962 961.576 550.745 961.576 548.138C961.576 545.531 986.665 540.885 985.707 538.428C984.749 535.972 979.402 525.544 977.619 522.068C975.837 518.592 973.163 514.247 974.054 509.902C974.945 505.557 964.25 486.958 964.25 486.958C964.25 486.958 961.576 476.01 960.685 470.796C959.794 465.582 951.773 408.226 951.773 408.226L941.969 383.025Z" fill="#575A89"/>
<path id="Vector_46" d="M1020.73 305.881C1020.19 304.245 1019.04 302.867 1017.51 302.015C1017.59 300.288 1017.36 298.562 1016.83 296.913C1015.05 292.096 1010.84 292.372 1006.88 290.243C1005.15 289.319 1005.26 288.502 1004.36 286.984C1003.16 284.968 1001.4 283.321 999.288 282.23C996.742 280.742 994.055 279.209 991.043 279.02C984.714 278.625 979.862 284.088 973.812 285.841C971.146 286.614 968.281 286.646 965.601 287.377C962.92 288.107 960.246 289.852 959.847 292.391C959.662 293.564 959.988 294.767 959.8 295.939C959.429 298.269 957.201 299.901 955.71 301.817C952.413 306.055 952.79 312.041 955.427 316.652C955.985 317.61 956.621 318.523 957.328 319.383C957.552 321.574 958.235 323.697 959.336 325.62C961.972 330.231 966.51 333.676 971.249 336.539C970.861 335.012 970.626 333.453 970.546 331.883C970.479 331.359 970.554 330.827 970.762 330.34C971.29 329.327 972.684 329.058 973.748 328.503C975.95 327.355 976.814 324.813 976.878 322.488C976.941 320.164 976.405 317.836 976.67 315.524C976.684 314.985 976.819 314.455 977.064 313.972C977.309 313.489 977.659 313.063 978.089 312.725C978.911 312.297 979.836 312.095 980.766 312.139C985.278 311.97 989.994 311.894 993.974 309.935C995.266 309.149 996.645 308.509 998.085 308.027C1001.47 307.217 1004.93 309.393 1006.88 312.056C1008.82 314.72 1009.8 317.889 1011.6 320.64C1013.39 323.391 1016.5 325.845 1019.98 325.519C1020.17 325.52 1020.37 325.483 1020.54 325.411C1020.72 325.338 1020.88 325.23 1021.02 325.095C1021.17 324.85 1021.23 324.566 1021.21 324.283L1021.4 312.082C1021.57 309.992 1021.34 307.892 1020.73 305.881Z" fill="#2F2E41"/>
</g>
</g>
<defs>
<linearGradient id="paint0_linear" x1="576.375" y1="724.766" x2="576.375" y2="0" gradientUnits="userSpaceOnUse">
<stop stop-color="#808080" stop-opacity="0.25"/>
<stop offset="0.54" stop-color="#808080" stop-opacity="0.12"/>
<stop offset="1" stop-color="#808080" stop-opacity="0.1"/>
</linearGradient>
<linearGradient id="paint1_linear" x1="34639.5" y1="237770" x2="66122.6" y2="237770" gradientUnits="userSpaceOnUse">
<stop stop-color="#808080" stop-opacity="0.25"/>
<stop offset="0.54" stop-color="#808080" stop-opacity="0.12"/>
<stop offset="1" stop-color="#808080" stop-opacity="0.1"/>
</linearGradient>
<clipPath id="clip0">
<rect width="1167.52" height="779.03" fill="white"/>
</clipPath>
</defs>
</svg>
