<svg  viewBox="0 0 1002 689" fill="none" xmlns="http://www.w3.org/2000/svg">
<g id="undraw_Party_re_nmwj 1" clip-path="url(#clip0)">
<path id="Vector" d="M192.397 185.017C191.887 184.989 191.398 184.802 191 184.483C190.601 184.164 190.312 183.728 190.174 183.236L177.321 140.065C177.212 139.7 177.188 139.315 177.251 138.94C177.314 138.564 177.461 138.208 177.682 137.898C177.904 137.589 178.193 137.333 178.527 137.152C178.862 136.971 179.234 136.869 179.614 136.853H179.614L205.797 135.776C206.195 135.76 206.592 135.839 206.953 136.007C207.315 136.175 207.631 136.427 207.875 136.742C208.119 137.057 208.285 137.426 208.358 137.818C208.43 138.21 208.408 138.613 208.294 138.995L194.963 183.244C194.815 183.763 194.5 184.218 194.066 184.54C193.633 184.862 193.105 185.031 192.566 185.023C192.509 185.023 192.452 185.021 192.397 185.017Z" fill="#E6E6E6"/>
<path id="Vector_2" d="M318.429 175.537C317.921 175.592 317.409 175.486 316.964 175.235C316.519 174.984 316.164 174.6 315.948 174.137L296.312 133.599C296.146 133.256 296.06 132.88 296.062 132.5C296.063 132.119 296.151 131.744 296.32 131.403C296.488 131.061 296.732 130.763 297.034 130.53C297.335 130.298 297.685 130.137 298.058 130.06H298.058L323.726 124.781C324.116 124.701 324.52 124.715 324.904 124.823C325.288 124.93 325.641 125.128 325.932 125.4C326.224 125.671 326.447 126.009 326.582 126.384C326.717 126.759 326.76 127.161 326.708 127.556L320.677 173.374C320.614 173.91 320.376 174.41 320 174.797C319.624 175.185 319.131 175.437 318.597 175.516C318.541 175.525 318.485 175.532 318.429 175.537Z" fill="#E6E6E6"/>
<path id="Vector_3" d="M457.308 128.064C456.837 128.262 456.316 128.308 455.818 128.196C455.32 128.083 454.869 127.818 454.529 127.437L424.06 94.2617C423.802 93.9813 423.612 93.6459 423.504 93.281C423.396 92.9161 423.372 92.5313 423.435 92.156C423.499 91.7806 423.646 91.4246 423.868 91.1151C424.09 90.8057 424.379 90.5508 424.714 90.3701L424.714 90.37L447.778 77.9293C448.129 77.7402 448.52 77.6376 448.918 77.6303C449.317 77.623 449.711 77.711 450.069 77.8872C450.426 78.0633 450.737 78.3224 450.974 78.6428C451.211 78.9632 451.368 79.3357 451.432 79.7291L458.838 125.345C458.932 125.876 458.848 126.424 458.599 126.903C458.351 127.382 457.951 127.766 457.462 127.995C457.411 128.019 457.359 128.043 457.308 128.064Z" fill="#E6E6E6"/>
<path id="Vector_4" d="M900.579 225.965C900.076 225.88 899.611 225.64 899.251 225.278C898.891 224.916 898.653 224.45 898.57 223.947L890.629 179.608C890.562 179.233 890.581 178.848 890.686 178.482C890.79 178.116 890.976 177.779 891.231 177.496C891.485 177.213 891.801 176.991 892.154 176.849C892.507 176.706 892.888 176.646 893.267 176.673H893.268L919.406 178.533C919.804 178.561 920.189 178.684 920.529 178.892C920.87 179.099 921.156 179.385 921.363 179.725C921.571 180.066 921.694 180.451 921.722 180.848C921.751 181.246 921.684 181.645 921.527 182.011L903.329 224.49C903.123 224.989 902.759 225.407 902.292 225.678C901.825 225.949 901.282 226.058 900.747 225.99C900.691 225.983 900.635 225.975 900.579 225.965Z" fill="#E6E6E6"/>
<path id="Vector_5" d="M761.064 196.925C760.592 196.73 760.192 196.393 759.921 195.96C759.65 195.527 759.521 195.02 759.553 194.511L761.648 149.515C761.665 149.135 761.77 148.764 761.952 148.43C762.135 148.096 762.392 147.809 762.703 147.589C763.014 147.37 763.371 147.224 763.747 147.163C764.122 147.103 764.507 147.129 764.871 147.239L764.871 147.239L789.946 154.852C790.328 154.968 790.676 155.173 790.962 155.451C791.248 155.729 791.463 156.071 791.59 156.449C791.716 156.827 791.751 157.23 791.691 157.624C791.63 158.018 791.476 158.392 791.242 158.714L764.072 196.097C763.761 196.538 763.313 196.864 762.798 197.024C762.283 197.185 761.729 197.172 761.222 196.986C761.169 196.967 761.116 196.947 761.064 196.925Z" fill="#E6E6E6"/>
<path id="Vector_6" d="M677.115 221.862H662.13C661.455 221.862 660.788 221.71 660.179 221.417C659.571 221.124 659.036 220.698 658.614 220.17C658.193 219.643 657.895 219.027 657.744 218.369C657.593 217.71 657.592 217.026 657.742 216.368L660.517 204.121C624.909 198.332 598.122 159.435 598.122 113.362C598.122 62.9087 630.197 21.8619 669.622 21.8619C709.048 21.8619 741.122 62.9087 741.122 113.362C741.122 159.435 714.336 198.332 678.728 204.121L681.503 216.368C681.652 217.026 681.651 217.71 681.5 218.369C681.349 219.027 681.052 219.643 680.63 220.17C680.209 220.698 679.674 221.124 679.065 221.417C678.457 221.71 677.79 221.862 677.115 221.862V221.862Z" fill="#FF6584"/>
<path id="Vector_7" d="M683.122 207.862H659.122C658.194 207.862 657.304 207.493 656.647 206.837C655.991 206.18 655.622 205.29 655.622 204.362C655.622 203.434 655.991 202.543 656.647 201.887C657.304 201.231 658.194 200.862 659.122 200.862H683.122C684.051 200.862 684.941 201.231 685.597 201.887C686.254 202.543 686.622 203.434 686.622 204.362C686.622 205.29 686.254 206.18 685.597 206.837C684.941 207.493 684.051 207.862 683.122 207.862V207.862Z" fill="#3F3D56"/>
<path id="Vector_8" d="M658.106 203.499C654.434 202.581 650.6 202.518 646.899 203.313C643.198 204.108 639.729 205.74 636.757 208.085C633.832 210.486 631.508 213.537 629.969 216.994C628.43 220.451 627.719 224.22 627.892 228C628.624 244.339 645.073 253.121 656.539 261.908C670.089 272.292 682.808 284.273 691.989 298.779C701.081 313.144 706.783 330.166 705.462 347.31C704.319 362.139 697.599 376.84 686.075 386.436C684.623 387.637 683.098 388.748 681.509 389.762C679.89 390.802 681.392 393.4 683.023 392.352C695.65 384.236 704.003 370.706 707.166 356.17C710.686 339.997 707.55 323.162 700.632 308.315C693.446 292.893 682.142 279.781 669.44 268.618C663.139 263.08 656.447 258.054 649.669 253.123C643.709 248.788 637.462 244.118 633.758 237.59C631.929 234.389 630.948 230.774 630.908 227.088C630.868 223.402 631.771 219.766 633.531 216.527C635.368 213.268 638.034 210.553 641.258 208.657C644.483 206.761 648.151 205.751 651.892 205.73C653.719 205.713 655.54 205.935 657.309 206.392C659.18 206.87 659.978 203.977 658.106 203.499H658.106Z" fill="#3F3D56"/>
<path id="Vector_9" d="M624.122 138.862C622.413 138.86 620.774 138.186 619.558 136.985C618.342 135.784 617.647 134.154 617.623 132.445C612.271 116.836 612.271 99.8882 617.623 84.2789C617.644 82.5617 618.344 80.9227 619.569 79.7198C620.795 78.5168 622.447 77.8478 624.164 77.8587C625.881 77.8697 627.524 78.5598 628.734 79.7783C629.944 80.9967 630.623 82.6446 630.622 84.3619L630.592 84.5342C624.909 100.023 624.909 116.059 630.594 132.196L630.622 132.362C630.62 134.085 629.935 135.737 628.716 136.956C627.498 138.174 625.846 138.86 624.122 138.862V138.862Z" fill="white"/>
<path id="Vector_10" d="M114.343 376.522C113.728 376.243 113.184 375.828 112.752 375.308C112.32 374.789 112.011 374.178 111.848 373.522L108.8 361.341C74.4098 372.24 32.9556 349.612 12.1686 308.494C-10.5945 263.468 -0.489147 212.365 34.6954 194.578C69.88 176.79 117.024 198.95 139.787 243.977C160.574 285.094 154.218 331.892 125.052 353.124L133.054 362.801C133.485 363.322 133.792 363.933 133.954 364.588C134.117 365.244 134.129 365.928 133.991 366.589C133.853 367.25 133.568 367.872 133.157 368.407C132.746 368.943 132.219 369.38 131.616 369.685L118.244 376.445C117.642 376.751 116.978 376.917 116.302 376.931C115.627 376.944 114.957 376.804 114.343 376.522V376.522Z" fill="#CCCCCC"/>
<path id="Vector_11" d="M101.863 365.117C101.445 364.289 101.374 363.328 101.663 362.447C101.953 361.565 102.58 360.834 103.408 360.415L124.826 349.586C125.654 349.169 126.614 349.097 127.495 349.387C128.376 349.677 129.106 350.305 129.525 351.133C129.943 351.96 130.016 352.92 129.727 353.802C129.438 354.683 128.811 355.414 127.984 355.833L106.566 366.662C105.737 367.079 104.777 367.151 103.895 366.862C103.014 366.572 102.283 365.945 101.863 365.117Z" fill="#3F3D56"/>
<path id="Vector_12" d="M126.923 351.481C129.786 349.006 133.179 347.219 136.841 346.259C140.502 345.299 144.335 345.19 148.045 345.942C151.738 346.765 155.189 348.439 158.122 350.83C161.055 353.221 163.39 356.264 164.941 359.715C171.66 374.627 160.942 389.885 154.674 402.9C147.267 418.281 141.321 434.712 139.672 451.799C138.039 468.721 140.631 486.485 149.545 501.189C157.255 513.907 169.884 523.995 184.499 527.36C186.337 527.777 188.199 528.08 190.074 528.267C191.989 528.466 191.82 531.462 189.892 531.262C174.961 529.716 161.403 521.41 152.021 509.865C141.583 497.02 136.786 480.58 136.261 464.21C135.716 447.204 139.889 430.402 146.188 414.709C149.313 406.925 153.018 399.42 156.842 391.961C160.204 385.403 163.673 378.417 164.033 370.92C164.221 367.238 163.466 363.57 161.838 360.262C160.21 356.954 157.764 354.117 154.732 352.02C151.623 349.941 148.019 348.72 144.286 348.483C140.553 348.246 136.823 349 133.475 350.669C131.837 351.477 130.312 352.497 128.94 353.703C127.485 354.974 125.468 352.753 126.923 351.481L126.923 351.481Z" fill="#3F3D56"/>
<path id="Vector_13" d="M119.355 275.596L119.306 275.435C117.098 258.469 109.864 244.158 97.8038 232.899L97.6988 232.759C96.9231 231.227 96.7853 229.45 97.3155 227.817C97.8457 226.183 99.0007 224.826 100.528 224.041C102.056 223.257 103.832 223.108 105.469 223.629C107.105 224.15 108.469 225.297 109.263 226.82C121.081 238.336 128.727 253.46 130.994 269.805C131.75 271.347 131.865 273.126 131.315 274.752C130.764 276.379 129.591 277.722 128.054 278.487C126.516 279.252 124.738 279.377 123.108 278.836C121.478 278.294 120.129 277.129 119.355 275.596V275.596Z" fill="white"/>
<path id="Vector_14" d="M768.86 460.342L659.523 403.971C657.875 403.119 656.631 401.647 656.066 399.879C655.501 398.112 655.66 396.192 656.509 394.542L663.272 381.423C664.125 379.775 665.596 378.531 667.364 377.966C669.132 377.401 671.051 377.561 672.702 378.409L782.039 434.781C783.688 435.633 784.931 437.104 785.496 438.872C786.061 440.64 785.902 442.56 785.053 444.21L778.29 457.328C777.87 458.146 777.293 458.873 776.59 459.467C775.888 460.06 775.075 460.508 774.198 460.785C773.505 461.008 772.782 461.121 772.054 461.122C770.943 461.121 769.847 460.854 768.86 460.342V460.342Z" fill="#6C63FF"/>
<path id="Vector_15" d="M735.526 407.609C736.389 407.272 737.311 407.112 738.237 407.136C739.163 407.16 740.075 407.369 740.92 407.75L776.751 427.562C780.672 429.728 783.611 433.318 784.961 437.589C786.311 441.861 785.969 446.487 784.004 450.513L783.555 450.295L784.005 450.514C782.128 454.361 778.905 457.386 774.947 459.016C770.988 460.646 766.57 460.767 762.528 459.356L723.669 445.774C722.828 445.402 722.068 444.869 721.433 444.203C720.798 443.538 720.3 442.754 719.968 441.896C719.636 441.038 719.477 440.123 719.499 439.204C719.521 438.284 719.724 437.378 720.096 436.537L731.65 411.306C731.851 410.85 732.1 410.416 732.393 410.012C733.183 408.925 734.271 408.091 735.526 407.609V407.609Z" fill="#2F2E41"/>
<path id="Vector_16" d="M817.969 401.556C847.527 401.556 871.488 377.595 871.488 348.037C871.488 318.479 847.527 294.518 817.969 294.518C788.411 294.518 764.45 318.479 764.45 348.037C764.45 377.595 788.411 401.556 817.969 401.556Z" fill="#6C63FF"/>
<path id="Vector_17" d="M811.401 680.883V557.869C811.404 556.013 812.142 554.234 813.454 552.922C814.766 551.609 816.546 550.871 818.401 550.869H833.161C835.017 550.871 836.796 551.609 838.108 552.922C839.421 554.234 840.159 556.013 840.161 557.869V680.883C840.159 682.739 839.421 684.518 838.108 685.83C836.796 687.143 835.017 687.881 833.161 687.883H818.401C816.546 687.881 814.766 687.143 813.454 685.83C812.142 684.518 811.404 682.739 811.401 680.883V680.883Z" fill="#6C63FF"/>
<path id="Vector_18" d="M779.401 680.883V557.869C779.404 556.013 780.142 554.234 781.454 552.922C782.766 551.609 784.546 550.871 786.401 550.869H801.161C803.017 550.871 804.796 551.609 806.108 552.922C807.421 554.234 808.159 556.013 808.161 557.869V680.883C808.159 682.739 807.421 684.518 806.108 685.83C804.796 687.143 803.017 687.881 801.161 687.883H786.401C784.546 687.881 782.766 687.143 781.454 685.83C780.142 684.518 779.404 682.739 779.401 680.883Z" fill="#6C63FF"/>
<path id="Vector_19" d="M819.093 367.873L819.149 365.873C815.428 365.77 812.148 365.536 809.683 363.735C808.984 363.196 808.41 362.512 807.999 361.731C807.588 360.949 807.35 360.089 807.302 359.207C807.258 358.668 807.34 358.127 807.54 357.625C807.74 357.123 808.053 356.674 808.454 356.312C810.091 354.931 812.723 355.378 814.642 356.258L816.297 357.017L813.124 333.826L811.142 334.098L813.842 353.824C811.234 353.058 808.818 353.388 807.163 354.785C806.528 355.34 806.03 356.034 805.707 356.813C805.384 357.593 805.246 358.436 805.303 359.277C805.361 360.462 805.678 361.619 806.231 362.668C806.784 363.717 807.559 364.633 808.503 365.351C811.67 367.665 815.786 367.78 819.093 367.873Z" fill="#2F2E41"/>
<path id="Vector_20" d="M801.343 335.799H790.572V337.799H801.343V335.799Z" fill="#2F2E41"/>
<path id="Vector_21" d="M835.343 335.799H824.572V337.799H835.343V335.799Z" fill="#2F2E41"/>
<path id="Vector_22" d="M869.183 578.225L850.672 456.611C850.395 454.776 850.857 452.906 851.957 451.412C853.057 449.917 854.705 448.919 856.539 448.638L871.131 446.417C872.966 446.14 874.836 446.602 876.331 447.702C877.825 448.802 878.823 450.45 879.104 452.284L897.615 573.897C897.892 575.732 897.43 577.602 896.33 579.097C895.23 580.592 893.582 581.589 891.748 581.871L877.156 584.091C876.248 584.23 875.32 584.189 874.427 583.969C873.535 583.75 872.694 583.356 871.953 582.811C871.213 582.267 870.587 581.581 870.111 580.794C869.636 580.007 869.321 579.134 869.183 578.225V578.225Z" fill="#6C63FF"/>
<path id="Vector_23" d="M854.877 500.167C854.098 499.666 853.426 499.015 852.902 498.251C852.377 497.487 852.01 496.627 851.822 495.719L846.803 455.085C846.252 450.639 847.43 446.151 850.093 442.549C852.757 438.947 856.702 436.506 861.114 435.731L861.201 436.222L861.114 435.73C865.33 434.988 869.672 435.819 873.316 438.064C876.961 440.31 879.655 443.815 880.887 447.914L892.727 487.339C892.921 488.238 892.935 489.167 892.77 490.071C892.605 490.976 892.262 491.84 891.763 492.612C891.264 493.385 890.617 494.051 889.86 494.574C889.103 495.096 888.251 495.464 887.352 495.657L860.146 501.131C859.659 501.237 859.161 501.29 858.662 501.291C857.319 501.289 856.004 500.899 854.877 500.167V500.167Z" fill="#2F2E41"/>
<path id="Vector_24" d="M856.314 588.069H713.291C711.841 588.069 710.414 587.698 709.148 586.991C707.881 586.284 706.817 585.264 706.055 584.03C705.294 582.795 704.862 581.386 704.799 579.937C704.736 578.487 705.045 577.046 705.697 575.75L774.846 438.239C779.651 428.684 787.538 421.03 797.232 416.513C806.927 411.997 817.861 410.884 828.267 413.353C838.673 415.822 847.941 421.729 854.574 430.119C861.206 438.509 864.814 448.891 864.814 459.585V579.569C864.811 581.823 863.915 583.983 862.321 585.577C860.728 587.17 858.567 588.067 856.314 588.069V588.069Z" fill="#2F2E41"/>
<path id="Vector_25" d="M819.865 303.883C808.909 306.329 799.668 313.469 788.652 315.69C783.633 316.701 778.104 316.66 773.494 314.189C770.08 312.335 767.469 309.288 766.159 305.63C764.865 301.889 764.531 297.882 765.189 293.978C765.848 290.074 767.477 286.398 769.927 283.288C776.11 275.719 785.969 272.231 795.429 271.248C814.359 269.28 833.803 275.518 849.211 286.385C865.121 297.605 877.325 314.452 881.419 333.626C883.608 343.876 883.392 354.779 879.655 364.649C876.062 374.093 868.988 381.803 859.886 386.194C857.714 387.242 855.449 388.085 853.121 388.713C852.749 388.829 852.437 389.085 852.251 389.427C852.065 389.769 852.019 390.169 852.122 390.545C852.225 390.92 852.471 391.24 852.806 391.438C853.141 391.636 853.54 391.696 853.918 391.606C864.152 388.811 872.98 382.31 878.685 373.367C884.546 363.992 886.513 352.515 885.61 341.608C883.864 320.508 872.261 301.116 856.041 287.84C840.459 275.085 820.301 267.325 800.034 267.942C789.869 268.251 779.319 270.831 771.415 277.529C768.009 280.409 765.372 284.091 763.741 288.243C762.111 292.395 761.537 296.887 762.073 301.316C762.527 305.459 764.172 309.382 766.809 312.61C770.032 316.252 774.5 318.56 779.337 319.08C791.321 320.64 801.713 313.847 812.303 309.48C815.007 308.341 817.803 307.436 820.662 306.776C822.546 306.355 821.749 303.462 819.865 303.883V303.883Z" fill="#2F2E41"/>
<path id="Vector_26" d="M849.966 282.681C845.663 266.573 856.892 249.809 872.15 244.779C880.905 242.053 890.298 242.158 898.99 245.079C907.464 247.946 915.074 252.914 921.108 259.519C934.483 273.747 940.407 292.951 943.18 311.885C946.042 331.434 944.427 352.845 954.43 370.61C958.577 377.975 964.733 384.424 972.687 387.596C980.107 390.554 988.997 390.568 996.106 386.723C997.817 385.786 999.399 384.631 1000.81 383.286C1002.22 381.958 1000.09 379.839 998.69 381.165C992.737 386.782 983.865 387.841 976.213 385.637C967.868 383.233 961.445 376.819 957.212 369.433C952.317 360.893 950.279 351.131 949.167 341.444C947.954 330.871 947.486 320.24 945.866 309.71C942.943 290.716 936.627 271.651 923.23 257.398C917.102 250.741 909.462 245.658 900.955 242.577C892.196 239.441 882.707 238.962 873.677 241.2C865.47 243.326 858.235 248.191 853.171 254.99C848.249 261.443 845.746 269.418 846.098 277.526C846.226 279.537 846.553 281.531 847.073 283.478C847.19 283.85 847.446 284.161 847.787 284.348C848.129 284.534 848.53 284.58 848.905 284.477C849.28 284.373 849.6 284.128 849.798 283.793C849.996 283.458 850.057 283.059 849.966 282.681L849.966 282.681Z" fill="#2F2E41"/>
<path id="Vector_27" d="M407.543 467.266L283.18 459.122C281.219 458.995 279.302 458.482 277.539 457.614C275.776 456.746 274.201 455.539 272.905 454.061C271.608 452.584 270.616 450.866 269.984 449.005C269.352 447.145 269.092 445.177 269.221 443.216C269.349 441.255 269.863 439.339 270.732 437.576C271.602 435.814 272.81 434.24 274.288 432.944C275.765 431.649 277.484 430.657 279.345 430.026C281.207 429.395 283.174 429.137 285.135 429.267L409.498 437.411C411.352 437.533 413.082 438.386 414.307 439.783C415.532 441.179 416.152 443.006 416.031 444.86L414.991 460.734C414.875 462.507 414.09 464.169 412.794 465.385C411.498 466.601 409.788 467.279 408.011 467.281C407.856 467.281 407.7 467.276 407.543 467.266Z" fill="#6C63FF"/>
<path id="Vector_28" d="M383.224 469.323L280.957 465.5C280.037 465.466 279.134 465.251 278.297 464.868C277.461 464.484 276.709 463.94 276.083 463.265C275.457 462.591 274.97 461.8 274.65 460.938C274.33 460.075 274.183 459.158 274.217 458.239L275.104 434.529C275.173 432.673 275.977 430.919 277.339 429.656C278.701 428.392 280.509 427.721 282.366 427.79L384.633 431.612C385.553 431.646 386.456 431.862 387.292 432.245C388.129 432.629 388.881 433.173 389.507 433.847C390.133 434.522 390.62 435.313 390.94 436.175C391.26 437.038 391.407 437.955 391.373 438.874L390.486 462.583C390.417 464.394 389.649 466.107 388.345 467.364C387.04 468.621 385.3 469.325 383.489 469.328C383.401 469.328 383.312 469.326 383.224 469.323Z" fill="#2F2E41"/>
<path id="Vector_29" d="M256.642 680.877V548.294C256.644 546.437 257.383 544.656 258.696 543.343C260.01 542.029 261.79 541.29 263.648 541.288H279.556C281.413 541.29 283.194 542.029 284.507 543.343C285.82 544.656 286.559 546.437 286.561 548.294V680.877C286.559 682.735 285.82 684.515 284.507 685.829C283.194 687.142 281.413 687.881 279.556 687.883H263.648C261.79 687.881 260.01 687.142 258.696 685.829C257.383 684.515 256.644 682.735 256.642 680.877Z" fill="#2F2E41"/>
<path id="Vector_30" d="M324.634 615.441L255.91 502.06C254.949 500.47 254.657 498.565 255.1 496.761C255.542 494.957 256.682 493.402 258.269 492.437L271.873 484.192C273.463 483.231 275.368 482.939 277.172 483.382C278.976 483.824 280.531 484.964 281.495 486.551L350.22 599.932C351.181 601.522 351.472 603.428 351.03 605.231C350.587 607.035 349.448 608.59 347.86 609.555L334.257 617.8C332.667 618.761 330.761 619.053 328.957 618.61C327.154 618.168 325.599 617.028 324.634 615.441V615.441Z" fill="#2F2E41"/>
<path id="Vector_31" d="M287.808 402.923C318.166 402.923 342.776 378.314 342.776 347.956C342.776 317.598 318.166 292.989 287.808 292.989C257.451 292.989 232.841 317.598 232.841 347.956C232.841 378.314 257.451 402.923 287.808 402.923Z" fill="#6C63FF"/>
<path id="Vector_32" d="M317.562 366.724C319.33 366.143 320.953 365.19 322.322 363.929C323.229 363.029 323.929 361.942 324.371 360.743C324.814 359.544 324.989 358.263 324.885 356.989C324.827 356.082 324.561 355.2 324.106 354.413C323.651 353.625 323.02 352.954 322.263 352.451C320.297 351.19 317.668 351.186 314.992 352.366L315.093 330.907L312.937 330.897L312.818 356.124L314.479 355.079C316.405 353.87 319.155 353.018 321.099 354.265C321.579 354.595 321.977 355.03 322.261 355.539C322.546 356.047 322.709 356.614 322.739 357.196C322.812 358.144 322.679 359.098 322.35 359.99C322.021 360.883 321.504 361.695 320.834 362.37C318.453 364.644 314.981 365.355 311.021 365.99L311.362 368.118C313.466 367.839 315.541 367.373 317.562 366.724V366.724Z" fill="#2F2E41"/>
<path id="Vector_33" d="M337.313 329.823L325.804 331.343L326.086 333.48L337.596 331.96L337.313 329.823Z" fill="#2F2E41"/>
<path id="Vector_34" d="M300.984 334.62L289.474 336.14L289.756 338.277L301.266 336.757L300.984 334.62Z" fill="#2F2E41"/>
<path id="Vector_35" d="M232.75 574.705V466.366C232.764 453.227 237.99 440.631 247.281 431.34C256.571 422.05 269.168 416.824 282.306 416.809H315.2C317.618 416.807 319.938 417.762 321.654 419.466C323.37 421.17 324.342 423.483 324.357 425.901L343.762 574.705C343.759 577.134 342.793 579.462 341.076 581.18C339.358 582.897 337.029 583.864 334.601 583.866H241.911C239.482 583.864 237.153 582.897 235.436 581.18C233.718 579.463 232.752 577.134 232.75 574.705V574.705Z" fill="#2F2E41"/>
<path id="Vector_36" d="M163.928 522.902L258.236 441.425C259.723 440.139 261.448 439.159 263.313 438.54C265.178 437.921 267.147 437.676 269.107 437.818C271.067 437.961 272.98 438.488 274.736 439.37C276.493 440.252 278.058 441.471 279.343 442.958C280.627 444.445 281.607 446.171 282.224 448.037C282.842 449.902 283.086 451.872 282.942 453.832C282.798 455.792 282.27 457.704 281.387 459.46C280.504 461.215 279.284 462.78 277.796 464.064L183.488 545.541C182.792 546.143 181.984 546.601 181.111 546.891C180.238 547.18 179.316 547.295 178.398 547.228C177.481 547.161 176.585 546.914 175.763 546.501C174.941 546.088 174.209 545.517 173.607 544.82L163.207 532.783C161.992 531.377 161.386 529.546 161.521 527.693C161.657 525.84 162.523 524.117 163.928 522.902V522.902Z" fill="#6C63FF"/>
<path id="Vector_37" d="M184.743 496.014L262.184 429.109C262.88 428.507 263.687 428.049 264.561 427.759C265.434 427.47 266.356 427.356 267.273 427.423C268.191 427.49 269.086 427.737 269.908 428.15C270.731 428.563 271.463 429.133 272.065 429.83L289.828 450.39C290.429 451.086 290.888 451.894 291.177 452.767C291.466 453.641 291.581 454.563 291.514 455.48C291.447 456.398 291.2 457.293 290.787 458.115C290.374 458.937 289.803 459.67 289.107 460.271L211.667 527.176C210.26 528.389 208.429 528.994 206.577 528.859C204.725 528.724 203.002 527.859 201.786 526.455L184.022 505.895C182.807 504.489 182.201 502.658 182.336 500.805C182.472 498.952 183.337 497.228 184.743 496.014Z" fill="#2F2E41"/>
<path id="Vector_38" d="M286.781 315.355C294.129 309.274 303.951 315.025 312.261 314.209C320.211 313.428 326.61 306.432 328.353 298.903C330.388 290.119 325.978 281.197 319.335 275.57C312.06 269.408 302.293 267.493 292.985 268.431C282.316 269.505 272.487 274.282 263.639 280.117C255.101 285.57 247.223 291.993 240.161 299.257C233.834 305.984 228.428 314.043 226.576 323.221C224.894 331.563 225.881 340.86 230.694 348.045C233.249 351.729 236.71 354.693 240.744 356.65C244.947 358.814 249.445 360.389 253.511 362.823C259.658 366.503 265.559 374.003 263.466 381.651C263.017 383.322 262.163 384.857 260.981 386.121C259.561 387.638 257.091 385.551 258.515 384.029C261.016 381.357 260.989 377.729 259.745 374.458C258.262 370.771 255.572 367.696 252.113 365.739C247.857 363.197 243.135 361.588 238.768 359.263C234.586 357.136 230.979 354.03 228.256 350.209C223.117 342.774 221.719 333.198 223.084 324.389C224.561 314.857 229.636 306.266 235.929 299.106C242.778 291.314 251.134 284.766 259.654 278.903C268.797 272.613 278.865 267.339 289.929 265.572C299.52 264.041 309.861 265.292 318.121 270.66C325.83 275.67 331.654 284.148 332.072 293.505C332.204 297.762 331.201 301.977 329.164 305.716C327.127 309.456 324.13 312.585 320.482 314.782C316.741 316.925 312.421 317.84 308.132 317.397C303.546 317.016 298.976 315.522 294.347 315.825C292.253 315.912 290.245 316.679 288.626 318.011C287.021 319.339 285.188 316.673 286.781 315.355L286.781 315.355Z" fill="#2F2E41"/>
<path id="Vector_39" d="M350.385 606.759L309.148 670.693C308.139 672.253 306.553 673.349 304.737 673.74C302.922 674.132 301.025 673.788 299.463 672.783L286.095 664.161C284.533 663.153 283.436 661.567 283.044 659.751C282.652 657.935 282.998 656.037 284.005 654.476L325.242 590.542C326.251 588.982 327.837 587.886 329.652 587.494C331.468 587.103 333.365 587.447 334.927 588.452L348.295 597.074C349.07 597.571 349.738 598.217 350.262 598.973C350.786 599.73 351.154 600.583 351.345 601.484C351.372 601.605 351.395 601.726 351.415 601.848C351.694 603.556 351.327 605.307 350.385 606.759V606.759Z" fill="#2F2E41"/>
<path id="Vector_40" d="M974.874 688.362H81.8743C81.6091 688.362 81.3548 688.257 81.1672 688.069C80.9797 687.881 80.8743 687.627 80.8743 687.362C80.8743 687.097 80.9797 686.842 81.1672 686.655C81.3548 686.467 81.6091 686.362 81.8743 686.362H974.874C975.14 686.362 975.394 686.467 975.581 686.655C975.769 686.842 975.874 687.097 975.874 687.362C975.874 687.627 975.769 687.881 975.581 688.069C975.394 688.257 975.14 688.362 974.874 688.362Z" fill="#3F3D56"/>
<path id="Vector_41" d="M404.122 295.362H398.122V314.362H404.122V295.362Z" fill="#F2F2F2"/>
<path id="Vector_42" d="M501.122 241.362H495.122V260.362H501.122V241.362Z" fill="#F2F2F2"/>
<path id="Vector_43" d="M476.553 299.561L471.859 303.297L483.692 318.163L488.386 314.426L476.553 299.561Z" fill="#F2F2F2"/>
<path id="Vector_44" d="M448.274 357.135L438.774 373.589L443.97 376.589L453.47 360.135L448.274 357.135Z" fill="#F2F2F2"/>
<path id="Vector_45" d="M421.274 172.135L411.774 188.589L416.97 191.589L426.47 175.135L421.274 172.135Z" fill="#F2F2F2"/>
<path id="Vector_46" d="M576.122 496.362H570.122V515.362H576.122V496.362Z" fill="#F2F2F2"/>
<path id="Vector_47" d="M673.122 442.362H667.122V461.362H673.122V442.362Z" fill="#F2F2F2"/>
<path id="Vector_48" d="M648.553 500.561L643.859 504.297L655.692 519.163L660.386 515.426L648.553 500.561Z" fill="#F2F2F2"/>
<path id="Vector_49" d="M620.274 558.135L610.774 574.589L615.97 577.589L625.47 561.135L620.274 558.135Z" fill="#F2F2F2"/>
<path id="Vector_50" d="M593.274 373.135L583.774 389.589L588.97 392.589L598.47 376.135L593.274 373.135Z" fill="#F2F2F2"/>
<path id="Vector_51" d="M292.682 293.014L282.934 287.222L275.196 282.617L263.974 275.945L256.226 271.345L245.694 265.075C245.523 264.975 245.328 264.921 245.13 264.918C244.931 264.916 244.736 264.966 244.563 265.063C244.389 265.16 244.245 265.301 244.143 265.472C244.041 265.642 243.986 265.836 243.983 266.035L243.874 274.948L243.781 281.837L243.653 291.821L243.575 298.714L243.447 308.698L243.364 315.581L243.298 320.697C243.289 320.896 243.337 321.093 243.436 321.266C243.533 321.438 243.672 321.582 243.839 321.686C244.01 321.788 244.205 321.843 244.403 321.845C244.602 321.847 244.798 321.796 244.971 321.698L292.663 294.963C292.814 294.884 292.943 294.769 293.04 294.629C293.137 294.49 293.199 294.329 293.221 294.16C293.234 294.105 293.241 294.049 293.243 293.992C293.241 293.795 293.191 293.601 293.095 293.429C292.999 293.254 292.856 293.111 292.682 293.014V293.014Z" fill="#CCCCCC"/>
<path id="Vector_52" d="M263.973 275.945L243.782 281.837L243.874 274.948L256.226 271.345L263.973 275.945Z" fill="#3F3D56"/>
<path id="Vector_53" d="M282.934 287.222L243.575 298.714L243.653 291.821L275.196 282.616L282.934 287.222Z" fill="#3F3D56"/>
<path id="Vector_54" d="M293.221 294.16C293.199 294.329 293.137 294.49 293.04 294.63C292.943 294.769 292.813 294.884 292.663 294.964L269.476 307.962L243.364 315.581L243.447 308.698L293.221 294.16Z" fill="#3F3D56"/>
<path id="Vector_55" d="M242.357 270.149C247.338 270.149 251.376 266.111 251.376 261.13C251.376 256.149 247.338 252.112 242.357 252.112C237.377 252.112 233.339 256.149 233.339 261.13C233.339 266.111 237.377 270.149 242.357 270.149Z" fill="#CCCCCC"/>
</g>
<defs>
<clipPath id="clip0">
<rect width="1001.27" height="688.362" fill="white"/>
</clipPath>
</defs>
</svg>
