<svg width="957" height="755" viewBox="0 0 957 755" fill="none" xmlns="http://www.w3.org/2000/svg">
<path d="M258.036 516.226H323.853L486.043 460.684C486.043 460.684 601.222 419.542 591.82 497.712C582.417 575.882 565.963 680.794 565.963 680.794C565.963 680.794 514.25 660.223 486.043 666.395C457.836 672.566 476.641 540.911 476.641 540.911C476.641 540.911 246.283 637.595 225.128 625.253C203.973 612.91 199.272 526.511 199.272 526.511L258.036 516.226Z" fill="#2F2E41"/>
<path opacity="0.1" d="M258.036 516.226H323.853L486.043 460.684C486.043 460.684 601.222 419.542 591.82 497.712C582.417 575.882 565.963 680.794 565.963 680.794C565.963 680.794 514.25 660.223 486.043 666.395C457.836 672.566 476.641 540.911 476.641 540.911C476.641 540.911 246.283 637.595 225.128 625.253C203.973 612.91 199.272 526.511 199.272 526.511L258.036 516.226Z" fill="black"/>
<path d="M359.609 336.898L439.151 436.527L624.591 571.587C624.591 571.587 795.947 606.375 772.474 630.932C749 655.488 605.813 606.375 605.813 606.375C605.813 606.375 392.204 471.315 385.162 461.084C378.12 450.852 300.658 354.673 300.658 354.673L359.609 336.898Z" fill="#A0616A"/>
<path opacity="0.1" d="M359.609 336.898L439.151 436.527L624.591 571.587C624.591 571.587 795.947 606.375 772.474 630.932C749 655.488 605.813 606.375 605.813 606.375C605.813 606.375 392.204 471.315 385.162 461.084C378.12 450.852 300.658 354.673 300.658 354.673L359.609 336.898Z" fill="black"/>
<path d="M313.109 255.923L364.691 345.015C364.691 345.015 352.968 388.526 334.211 392.67C315.453 396.813 235.735 338.8 235.735 338.8L313.109 255.923Z" fill="#D0CDE1"/>
<path opacity="0.1" d="M313.109 255.923L364.691 345.015C364.691 345.015 352.968 388.526 334.211 392.67C315.453 396.813 235.735 338.8 235.735 338.8L313.109 255.923Z" fill="black"/>
<path d="M941.542 472.464L956.889 527.035C957.06 527.644 957.033 528.281 956.812 528.877L887.194 716.413C886.919 717.156 886.356 717.795 885.6 718.223C884.844 718.651 883.941 718.843 883.04 718.767C882.14 718.69 881.298 718.35 880.653 717.803C880.009 717.255 879.602 716.534 879.5 715.759L869.869 642.703C869.805 642.217 869.862 641.726 870.038 641.262L933.939 472.211C934.206 471.505 934.732 470.894 935.438 470.47C936.144 470.046 936.991 469.832 937.851 469.861C938.711 469.889 939.537 470.159 940.203 470.629C940.869 471.098 941.339 471.743 941.542 472.464Z" fill="#2F2E41"/>
<path d="M937.324 473.857L951.664 521.133L889.519 693.791L875.18 640.349L937.324 473.857Z" fill="#F2F2F2"/>
<path d="M629.203 730.521C631.542 736.698 872.382 728.462 874.72 726.403C876.759 723.825 878.483 721.064 879.864 718.167C882.062 714.049 884.073 709.932 884.073 709.932L874.72 643.262L636.218 635.808C636.218 635.808 630.255 692.307 629.039 718.167C628.736 724.694 628.736 729.286 629.203 730.521Z" fill="#2F2E41"/>
<path opacity="0.1" d="M843.104 653.803L847.61 711.785H746.223V653.803H843.104Z" fill="black"/>
<path opacity="0.1" d="M709.133 670.908L709.76 670.797L706.797 695.79H648.395V670.908H709.133Z" fill="black"/>
<path opacity="0.1" d="M629.206 730.616C631.558 736.533 873.877 728.644 876.229 726.672C878.281 724.202 880.015 721.558 881.405 718.783H629.041C628.735 725.035 628.735 729.433 629.206 730.616Z" fill="black"/>
<path d="M349.572 226.931C407.531 226.931 454.516 185.754 454.516 134.959C454.516 84.1644 407.531 42.987 349.572 42.987C291.613 42.987 244.629 84.1644 244.629 134.959C244.629 185.754 291.613 226.931 349.572 226.931Z" fill="#A0616A"/>
<path d="M339.789 217.769C339.789 217.769 305.319 270.633 298.425 299.099C291.531 327.564 195.013 242.168 195.013 242.168L182.374 212.686C182.374 212.686 273.146 175.071 266.252 144.573C259.358 114.074 339.789 217.769 339.789 217.769Z" fill="#A0616A"/>
<path d="M359.632 376.886L455.585 487.143L684.937 636.195C684.937 636.195 851.1 666.822 813.654 689.282C776.209 711.741 668.555 668.864 668.555 668.864C668.555 668.864 436.863 560.648 387.716 515.729C338.569 470.809 247.297 395.262 247.297 395.262L359.632 376.886Z" fill="#A0616A"/>
<path d="M230.628 549.549L258.718 588.301L426.364 542.347C463.148 532.263 503.484 535.974 536.111 553.883C565.372 569.945 584.098 595.44 541.963 633.173C457.692 708.638 401.511 667.846 401.511 667.846C401.511 667.846 118.266 784.104 71.4486 726.995C24.6313 669.886 22.2905 641.331 22.2905 641.331C22.2905 641.331 202.537 543.43 230.628 549.549Z" fill="#2F2E41"/>
<path d="M582.491 684.958C582.491 684.958 657.27 727.329 568.47 747.506C479.669 767.683 414.237 739.435 414.237 739.435C414.237 739.435 337.121 739.436 337.121 705.135C337.121 670.834 362.827 666.799 362.827 666.799L442.28 676.887C442.28 676.887 538.091 654.693 582.491 684.958Z" fill="#D0CDE1"/>
<path d="M435.697 112.318C442.838 115.131 449.919 118.46 457.683 119.277C465.447 120.093 474.287 117.698 477.961 111.6C479.945 108.306 480.172 104.431 480.265 100.701C480.546 89.388 479.62 77.1584 471.506 68.4036C466.343 62.8318 458.806 59.3195 453.461 53.8829C449.632 49.988 447.083 45.2669 444.339 40.7129C433.945 23.4627 418.555 6.88412 397.165 1.91108C388.234 -0.165542 378.864 -0.0641893 369.63 0.0510021L315.766 0.722443C307.05 0.831105 298.199 0.95737 289.855 3.18664C272.518 7.81846 259.894 20.7009 248.333 33.0207C239.684 42.2377 231.012 51.55 224.52 62.0602C215.213 77.3978 210.507 94.5861 210.851 111.987C210.779 116.449 211.431 120.898 212.787 125.197C214.374 129.14 216.34 132.956 218.664 136.602C228.765 154.134 234.762 176.031 223.387 192.942C243.148 185.809 262.7 176.457 275.735 161.521C281.567 154.839 286.14 147.017 293.911 142.114C301.683 137.211 314.346 136.786 319.332 143.982C321.046 146.893 321.929 150.13 321.903 153.411C322.267 158.813 322.257 164.422 324.849 169.325C327.441 174.228 333.615 178.183 339.509 176.716C349.66 174.19 348.688 160.423 356.507 154.17C362.445 149.42 371.606 150.328 379.234 148.172C388.122 145.661 394.791 138.857 398.591 131.326C401.479 125.602 401.437 110.622 406.903 107.522C413.757 103.635 429.344 109.815 435.697 112.318Z" fill="#2F2E41"/>
<path d="M173.564 202.762C178.315 201.654 183.317 201.665 188.062 202.794C203.128 206.328 236.901 215.684 244.143 229.922C253.531 248.379 286.388 277.09 286.388 277.09C286.388 277.09 330.981 316.055 321.593 342.716C312.205 369.376 277 400.139 277 400.139C277 400.139 286.388 527.289 239.449 560.102C192.509 592.914 173.733 570.356 173.733 601.118C173.733 631.88 28.2204 728.268 0.0566406 668.794C0.0566406 668.794 14.1385 558.051 9.44458 519.085C4.8183 480.682 11.5909 241.078 173.564 202.762Z" fill="#D0CDE1"/>
<path d="M247.195 255.261C247.195 255.261 390.005 346.667 364.252 385.26C364.252 385.26 277.63 421.823 258.901 419.792C240.172 417.76 167.597 346.667 148.868 340.573C130.138 334.479 120.774 224.792 247.195 255.261Z" fill="#D0CDE1"/>
</svg>
