<svg width="700" height="540" viewBox="0 0 700 540" fill="none" xmlns="http://www.w3.org/2000/svg">
<g id="sad 1" clip-path="url(#clip0)">
<path id="floor" opacity="0.1" d="M351.044 535.286C543.816 535.286 700.089 520.447 700.089 502.143C700.089 483.839 543.816 469 351.044 469C158.273 469 2 483.839 2 502.143C2 520.447 158.273 535.286 351.044 535.286Z" fill="#6C63FF"/>
<g id="female-sad-right">
<g id="Group 3">
<path id="Vector" opacity="0.1" d="M536.107 416.595C536.107 416.595 517.232 422.64 514.374 417.401C513.648 416.071 513.289 413.741 513.164 411.009C517.068 410.396 528.954 408.704 535.388 409.977C535.732 413.717 536.107 416.595 536.107 416.595Z" fill="black"/>
<path id="Vector_2" d="M499.405 210.386L496.539 214.013C496.539 214.013 496.804 229.593 494.587 233.358C492.369 237.122 500.709 259.15 503.832 257.804C506.956 256.458 513.984 222.073 513.984 221.67C513.984 221.267 499.405 210.386 499.405 210.386Z" fill="#575A89"/>
<path id="Vector_3" d="M499.147 232.552C499.147 232.552 490.034 242.087 490.682 246.657C491.33 251.227 500.053 265.582 512.547 257.868C512.547 257.868 524.136 235.373 499.147 232.552Z" fill="#575A89"/>
<path id="Vector_4" opacity="0.1" d="M523.644 281.911C521.652 301.626 522.308 340.75 522.722 358.127C519.755 359.924 516.858 361.665 514.374 363.124C512.359 364.227 510.133 364.858 507.854 364.97C507.026 359.715 518.49 305.737 523.644 281.911Z" fill="black"/>
<path id="Vector_5" opacity="0.1" d="M526.08 270.724C526.025 271.006 525.08 275.294 523.644 281.911C524.206 276.261 524.987 272.207 526.08 270.724Z" fill="black"/>
<path id="Vector_6" opacity="0.1" d="M514.632 192.517C514.632 192.517 515.546 200.045 512.422 201.923C509.299 203.801 514.632 192.517 514.632 192.517Z" fill="black"/>
<path id="Vector_7" opacity="0.1" d="M530.898 183.732C530.898 183.732 519.911 184.457 519.841 186.069C519.77 187.681 530.898 183.732 530.898 183.732Z" fill="black"/>
<path id="Vector_8" opacity="0.1" d="M512.532 228.892C509.752 223.718 510.111 218.003 513.258 215.835C513.141 215.891 513.016 215.94 512.899 216.004C509.447 217.987 508.994 223.927 511.852 229.279C514.71 234.631 519.864 237.339 523.316 235.389C523.43 235.321 523.539 235.246 523.644 235.163C520.2 236.775 515.312 234.067 512.532 228.892Z" fill="black"/>
<path id="Vector_9" opacity="0.1" d="M516.249 185.255L515.241 186.867L512.672 185.457L514.023 183.313C514.916 183.749 515.684 184.418 516.249 185.255Z" fill="black"/>
<path id="Vector_10" d="M499.928 244.908C499.928 244.908 502.216 233.801 499.147 230.271C496.078 226.74 497.062 208.234 501.747 208.637C506.433 209.04 513.461 223.677 512.289 226.773C511.118 229.868 506.69 245.714 506.69 245.714L499.928 244.908Z" fill="#FBBEBE"/>
<g id="Group 2">
<path id="Vector_11" d="M650.422 229.924C650.418 229.868 650.418 229.811 650.422 229.755C650.422 229.666 650.422 229.585 650.422 229.505C650.265 228.582 649.928 227.701 649.43 226.918C647.643 223.965 645.154 221.535 642.199 219.857C637.045 216.939 629.962 215.69 627.901 210.12C627.268 208.396 627.253 206.518 626.94 204.712C626.394 201.899 625.14 199.284 623.305 197.129C621.469 194.975 619.117 193.356 616.484 192.437C614.032 191.59 611.385 191.357 609.003 190.309C603.678 187.971 600.866 182.209 598.485 176.881C595.403 170.003 592.321 163.122 589.239 156.239C586.896 157.456 583.866 156.884 581.672 155.361C579.558 153.736 577.874 151.587 576.776 149.114C573.597 142.747 572.231 135.533 568.498 129.472C564.766 123.411 557.308 118.623 550.717 121.258C549.43 121.922 548.1 122.49 546.735 122.959C541.089 124.321 534.842 117.664 530.008 120.896C529.205 121.427 528.551 122.166 528.11 123.04C528.106 122.986 528.106 122.932 528.11 122.879C527.481 124.19 527.13 125.624 527.08 127.086C527.08 127.384 527.08 127.674 527.08 127.956C527.08 128.005 527.08 128.053 527.08 128.101C527.08 129.262 527.15 130.439 527.165 131.616C527.183 132.604 527.11 133.592 526.947 134.566V134.485C526.855 135.033 526.72 135.572 526.541 136.097C525.283 139.579 521.801 141.86 520.169 145.132V144.971C519.985 145.327 519.826 145.696 519.692 146.075C519.402 146.933 519.252 147.835 519.247 148.743C519.107 154.893 525.424 160.68 526.158 167.281C526.681 171.956 527.72 173.455 531.57 176.099L532.413 176.679C532.077 176.679 531.734 176.728 531.351 176.736C531.202 176.739 531.053 176.755 530.906 176.784C530.227 176.591 529.514 176.556 528.82 176.681C528.126 176.807 527.468 177.09 526.892 177.51C523.94 179.928 516.959 178.066 513.859 177.51C510.759 176.953 500.139 178.453 498.655 184.53C497.171 190.607 494.626 203.149 494.626 203.149C494.626 203.149 494.626 211.104 493.681 212.587C493.644 212.691 493.644 212.805 493.681 212.909C493.681 215.142 493.759 228.562 491.666 232.02C491.151 232.826 491.19 234.607 491.572 236.799C489.37 239.725 487.301 243.142 487.668 245.383C488.339 249.969 497.351 264.389 510.267 256.667C510.267 256.667 517.615 242.796 508.369 235.421L508.768 233.809C511.563 237.355 513.633 239.902 513.633 239.902C513.633 239.902 513.742 240.201 513.914 240.708H513.633C514.839 244.098 515.57 247.648 515.803 251.251C515.768 252.572 515.536 253.879 515.116 255.128H515.358C515.288 255.402 515.21 255.676 515.116 255.934C514.662 257.295 513.815 258.479 512.688 259.327C506.23 264.05 498.835 297.782 498.835 297.782C498.835 297.782 484.185 352.308 481.257 355.411C478.836 357.958 494.048 365.131 505.464 364.277C507.058 364.179 508.633 363.87 510.15 363.358C510.22 364.164 510.298 364.97 510.376 365.704C510.618 368.122 510.868 370.362 511.024 371.063C511.43 372.82 512.235 390.762 512.235 390.762C512.235 390.762 510.587 402.417 510.985 410.525C510.985 411.082 511.056 411.613 511.102 412.137L509.681 412.363C507.526 417.36 516.405 459.055 517.615 462.561C518.417 465.324 518.868 468.182 518.958 471.064C518.958 471.064 518.177 474.03 518.825 475.651C519.229 476.641 519.492 477.686 519.606 478.754C519.606 478.754 519.075 481.446 519.88 483.203C520.684 484.96 519.747 488.039 519.747 488.039C519.747 488.039 519.481 500.185 517.061 506.795C516.401 508.573 516.21 510.5 516.504 512.38C516.799 514.259 517.57 516.025 518.74 517.498C518.908 517.728 519.09 517.946 519.286 518.151C519.286 518.151 532.64 518.264 534.99 518.151H535.295C536.239 518.014 538.66 507.085 536.505 501.822C534.35 496.558 536.239 490.078 536.239 490.078V480.503C536.239 480.503 538.66 478.198 536.239 473.249C533.819 468.3 534.217 466.801 534.217 466.801C534.217 466.801 536.911 458.837 534.084 456.274C531.257 453.711 534.623 443.991 534.623 443.991L535.576 411.589C535.077 411.422 534.568 411.287 534.053 411.186C533.998 410.654 533.944 410.106 533.889 409.526C533.335 403.658 532.858 395.679 534.092 393.406C535.326 391.133 535.919 371.289 536.115 357.498L548.421 357.982C548.679 364.43 548.952 370.314 549.124 371.063C549.53 372.82 550.342 390.762 550.342 390.762C550.342 390.762 548.687 402.417 549.085 410.525C549.085 411.082 549.155 411.613 549.202 412.137L547.781 412.363C545.626 417.36 554.505 459.055 555.715 462.561C556.517 465.324 556.971 468.182 557.066 471.064C557.066 471.064 556.285 474.03 556.925 475.651C557.329 476.641 557.592 477.686 557.706 478.754C557.706 478.754 557.175 481.446 557.98 483.203C558.784 484.96 557.847 488.039 557.847 488.039C557.847 488.039 557.581 500.185 555.161 506.795C554.512 508.576 554.33 510.502 554.635 512.379C554.939 514.256 555.719 516.016 556.894 517.482C557.062 517.712 557.245 517.93 557.441 518.135C557.441 518.135 570.794 518.248 573.145 518.135H573.449C574.394 517.998 576.815 507.069 574.659 501.805C572.504 496.542 574.394 490.062 574.394 490.062V480.503C574.394 480.503 576.815 478.198 574.394 473.249C571.973 468.3 572.371 466.801 572.371 466.801C572.371 466.801 575.066 458.837 572.239 456.274C569.412 453.711 572.778 443.991 572.778 443.991L573.746 411.589C573.235 411.419 572.713 411.284 572.184 411.186C572.129 410.654 572.075 410.106 572.02 409.526C571.466 403.658 570.989 395.679 572.223 393.406C573.215 391.544 573.785 379.551 574.043 367.839C574.043 367.033 574.043 366.227 574.105 365.421C579.76 365.178 585.391 364.527 590.957 363.471C590.957 363.471 584.374 339.444 586.389 335.535C587.255 333.85 586.006 324.879 584.296 315.215C586.681 317.208 589.646 318.315 592.714 318.359C595.658 324.202 604.615 337.646 609.659 339.718C615.578 342.136 611.135 320.696 608.316 317.593C606.982 315.899 605.859 314.039 604.974 312.056C605.052 311.959 605.138 311.879 605.216 311.79C605.294 311.701 605.356 288.98 604.005 289.391C602.655 289.802 601.046 286.014 601.046 286.014L596.876 248.236L595.127 232.423C596.587 233.535 598.321 234.244 599.812 235.348C603.873 238.419 605.2 243.811 606.981 248.583C608.449 252.508 610.51 256.401 613.892 258.868C617.273 261.334 622.232 261.987 625.605 259.488C628.729 257.143 629.65 252.911 630.337 249.05C636.007 251.106 642.886 245.609 642.152 239.604C641.973 238.121 641.442 236.501 642.191 235.203C643.691 232.64 648.438 234.131 650 231.6C650.263 231.163 650.398 230.656 650.391 230.142C650.414 230.029 650.422 229.98 650.422 229.924ZM574.589 250.703C574.503 252.146 576.424 263.736 577.986 272.908C576.705 267.194 574.136 261.092 569.076 256.909C569.076 256.909 569.076 256.619 569.014 256.103H569.076C569.076 256.103 568.865 253.798 568.834 250.517C568.843 247.61 569.052 244.706 569.459 241.829V241.756H569.357C569.357 241.514 569.42 241.264 569.459 241.023C569.769 238.595 570.408 236.223 571.356 233.978C571.776 233.098 572.259 232.252 572.801 231.447C573.636 239.241 574.667 249.244 574.589 250.703ZM578.79 277.559C579.478 281.516 579.97 284.297 579.97 284.297L584.116 313.684V313.821C581.883 301.417 579.033 288.343 579.033 288.343C579.323 284.75 579.242 281.135 578.79 277.559Z" fill="url(#paint0_linear)"/>
<path id="Vector_12" d="M527.97 168.893C527.189 161.446 519.38 155.022 521.723 147.937C522.995 144.076 526.978 141.715 528.321 137.878C529.211 135.347 528.813 132.567 528.821 129.875C528.829 127.183 529.438 124.176 531.609 122.685C536.294 119.461 542.323 126.095 547.789 124.74C549.11 124.274 550.397 123.708 551.639 123.048C558.019 120.428 565.234 125.2 568.818 131.229C572.403 137.258 573.746 144.447 576.823 150.782C577.873 153.229 579.5 155.365 581.555 156.997C583.679 158.512 586.584 159.084 588.88 157.875L597.821 178.428C600.163 183.724 602.85 189.463 607.972 191.792C610.268 192.832 612.83 193.065 615.204 193.912C617.784 194.851 620.079 196.473 621.861 198.616C623.643 200.759 624.848 203.348 625.355 206.123C625.66 207.928 625.667 209.798 626.284 211.515C628.276 217.06 635.124 218.301 640.114 221.187C643.001 222.867 645.421 225.284 647.142 228.207C647.923 229.602 648.595 231.431 647.759 232.801C646.252 235.316 641.668 233.833 640.216 236.388C639.482 237.678 639.997 239.29 640.216 240.773C640.926 246.745 634.265 252.218 628.783 250.171C628.119 254.015 627.221 258.231 624.207 260.56C620.967 263.059 616.164 262.398 612.892 259.948C609.62 257.497 607.637 253.621 606.215 249.711C604.49 244.956 603.201 239.588 599.273 236.533C597.852 235.437 596.15 234.728 594.76 233.624C591.636 231.157 590.074 227.087 588.958 223.146C587.513 218.229 586.365 213.175 584.272 208.533C582.179 203.89 578.868 199.57 574.331 197.45C570.076 195.475 565.172 195.604 560.775 194C553.208 191.244 547.609 184.675 540.081 181.58C537.675 180.536 535.395 179.205 533.288 177.614C529.5 175.043 528.47 173.552 527.97 168.893Z" fill="#3F3D56"/>
<g id="Group" opacity="0.1">
<path id="Vector_13" opacity="0.1" d="M528.673 136.299C528.834 135.983 528.974 135.657 529.094 135.323C529.977 132.792 529.586 130.012 529.594 127.32C529.594 126.422 529.675 125.526 529.836 124.644C529.115 126.236 528.765 127.981 528.813 129.738C528.805 131.906 529.055 134.179 528.673 136.299Z" fill="black"/>
<path id="Vector_14" opacity="0.1" d="M624.941 258.029C621.701 260.52 616.898 259.867 613.626 257.409C610.354 254.95 608.363 251.09 606.981 247.164C605.255 242.409 603.974 237.041 600.038 233.986C598.625 232.89 596.915 232.173 595.533 231.077C592.409 228.61 590.847 224.54 589.723 220.639C588.278 215.722 587.138 210.669 585.038 206.026C582.937 201.383 579.642 197.063 575.097 194.943C570.849 192.969 565.945 193.098 561.548 191.494C553.974 188.737 548.375 182.168 540.855 179.073C538.447 178.026 536.165 176.695 534.053 175.108C530.351 172.472 529.368 170.981 528.821 166.33C528.04 159.35 521.168 153.265 522.238 146.688C522.064 147.044 521.91 147.41 521.777 147.784C519.435 154.877 527.244 161.301 528.024 168.74C528.532 173.391 529.586 174.882 533.256 177.518C535.368 179.105 537.65 180.436 540.058 181.483C547.578 184.578 553.177 191.155 560.752 193.904C565.148 195.516 570.052 195.379 574.3 197.353C578.845 199.473 582.109 203.801 584.241 208.436C586.373 213.07 587.513 218.108 588.926 223.049C590.074 226.95 591.581 231.02 594.736 233.487C596.15 234.583 597.86 235.3 599.242 236.396C603.146 239.451 604.458 244.819 606.184 249.574C607.605 253.484 609.597 257.352 612.869 259.803C616.141 262.253 620.943 262.914 624.184 260.423C626.253 258.811 627.307 256.353 628.002 253.717C627.384 255.417 626.325 256.909 624.941 258.029Z" fill="black"/>
<path id="Vector_15" opacity="0.1" d="M640.989 233.857C640.69 234.435 640.56 235.09 640.614 235.743C642.379 233.946 646.361 235.002 647.751 232.689C648.074 232.117 648.201 231.45 648.111 230.794C646.299 232.568 642.316 231.512 640.989 233.857Z" fill="black"/>
<path id="Vector_16" opacity="0.1" d="M629.517 247.64C629.369 248.446 629.221 249.308 629.033 250.147C633.812 251.686 639.333 247.729 640.114 242.731C638.217 246.576 633.531 249.147 629.517 247.64Z" fill="black"/>
</g>
<path id="Vector_17" d="M538.059 172.77C538.059 172.77 540.659 178.187 532.983 178.299C525.307 178.412 537.926 213.473 537.926 213.473L550.686 230.238L566.562 221.372L567.475 196.918L568.646 182.144C568.646 182.144 553.809 177.171 556.543 170.594C559.276 164.017 538.059 172.77 538.059 172.77Z" fill="#FBBEBE"/>
<path id="Vector_18" d="M584.14 315.723C584.14 315.723 593.51 325.242 604.443 312.612L596.048 303.415H585.428L584.14 315.723Z" fill="#575A89"/>
<path id="Vector_19" opacity="0.1" d="M585.155 303.415L583.866 315.723C583.866 315.723 593.237 325.242 604.169 312.612" fill="black"/>
<path id="Vector_20" d="M600.921 305.092C600.921 305.092 604.693 315.304 607.426 318.391C610.159 321.478 614.454 342.837 608.73 340.419C603.006 338.001 592.073 320.003 591.417 316.916C590.762 313.829 590.512 305.092 590.512 305.092H600.921Z" fill="#FBBEBE"/>
<path id="Vector_21" d="M519.06 357.482L569.552 359.497L563.696 337.461L538.262 336.929L519.06 357.482Z" fill="#575A89"/>
<path id="Vector_22" opacity="0.1" d="M526.08 357.482L576.58 359.497L570.724 337.461L545.282 336.929L526.08 357.482Z" fill="black"/>
<path id="Vector_23" d="M535.583 393.857C534.389 396.154 534.849 404.102 535.388 409.977C535.732 413.717 536.107 416.595 536.107 416.595C536.107 416.595 517.232 422.64 514.374 417.401C513.648 416.071 513.289 413.741 513.164 411.009C512.774 402.949 514.374 391.334 514.374 391.334C514.374 391.334 513.593 373.473 513.203 371.724C513.047 371.023 512.805 368.799 512.57 366.389C512.227 362.81 511.899 358.828 511.899 358.828L537.668 344.723C537.668 344.723 537.668 347.367 537.622 351.437C537.481 364.22 537.067 391.036 535.583 393.857Z" fill="#FBBEBE"/>
<path id="Vector_24" d="M536.755 518.151H536.458C534.186 518.24 521.27 518.151 521.27 518.151C521.081 517.947 520.903 517.732 520.739 517.506C519.597 516.031 518.843 514.277 518.549 512.414C518.255 510.55 518.431 508.64 519.06 506.867C521.402 500.282 521.66 488.192 521.66 488.192C521.66 488.192 522.574 485.105 521.793 483.356C521.012 481.607 521.527 478.923 521.527 478.923C521.407 477.861 521.145 476.822 520.746 475.836C520.098 474.224 520.879 471.266 520.879 471.266C520.79 468.4 520.352 465.556 519.575 462.803C518.404 459.313 509.814 417.804 511.899 412.831C511.899 412.831 530.117 409.607 537.02 412.025L536.107 444.265C536.107 444.265 532.85 453.937 535.583 456.492C538.317 459.047 535.716 466.97 535.716 466.97C535.716 466.97 535.326 468.445 537.668 473.418C540.011 478.391 537.668 480.672 537.668 480.672V490.207C537.668 490.207 535.849 496.655 537.926 501.894C540.003 507.133 537.668 517.982 536.755 518.151Z" fill="#3F3D56"/>
<path id="Vector_25" d="M572.512 393.857C571.317 396.154 571.778 404.102 572.317 409.977C572.66 413.717 573.035 416.595 573.035 416.595C573.035 416.595 554.161 422.64 551.303 417.401C550.577 416.071 550.218 413.741 550.093 411.009C549.702 402.949 551.303 391.334 551.303 391.334C551.303 391.334 550.522 373.473 550.132 371.724C549.921 370.781 549.554 361.786 549.265 353.718C549.023 346.835 548.828 340.613 548.828 340.613L574.597 344.723C574.597 344.723 574.597 356.418 574.277 368.436C573.996 380.091 573.472 392.036 572.512 393.857Z" fill="#FBBEBE"/>
<path id="Vector_26" opacity="0.1" d="M573.035 416.595C573.035 416.595 554.161 422.64 551.303 417.401C550.577 416.071 550.217 413.741 550.093 411.009C553.997 410.396 565.882 408.704 572.317 409.977C572.66 413.717 573.035 416.595 573.035 416.595Z" fill="black"/>
<path id="Vector_27" d="M573.683 518.151H573.387C571.114 518.24 558.198 518.151 558.198 518.151C558.009 517.947 557.832 517.732 557.667 517.506C556.526 516.031 555.772 514.277 555.478 512.414C555.184 510.55 555.359 508.64 555.988 506.867C558.331 500.25 558.565 488.16 558.565 488.16C558.565 488.16 559.479 485.073 558.698 483.324C557.917 481.575 558.432 478.891 558.432 478.891C558.313 477.829 558.05 476.79 557.652 475.804C557.003 474.192 557.784 471.234 557.784 471.234C557.695 468.367 557.257 465.524 556.48 462.771C555.309 459.281 546.719 417.771 548.804 412.798C548.804 412.798 567.022 409.574 573.925 411.992L573.012 444.233C573.012 444.233 569.755 453.905 572.489 456.46C575.222 459.015 572.621 466.938 572.621 466.938C572.621 466.938 572.231 468.413 574.574 473.386C576.916 478.359 574.574 480.64 574.574 480.64V490.175C574.574 490.175 572.754 496.623 574.831 501.862C576.908 507.101 574.597 517.982 573.683 518.151Z" fill="#3F3D56"/>
<path id="Vector_28" opacity="0.1" d="M548.211 179.105C558.346 179.105 566.562 170.625 566.562 160.164C566.562 149.703 558.346 141.223 548.211 141.223C538.076 141.223 529.859 149.703 529.859 160.164C529.859 170.625 538.076 179.105 548.211 179.105Z" fill="black"/>
<path id="Vector_29" d="M548.211 178.299C558.346 178.299 566.562 169.819 566.562 159.358C566.562 148.897 558.346 140.417 548.211 140.417C538.076 140.417 529.859 148.897 529.859 159.358C529.859 169.819 538.076 178.299 548.211 178.299Z" fill="#FBBEBE"/>
<path id="Vector_30" opacity="0.1" d="M511.899 358.828L537.668 344.723C537.668 344.723 537.668 347.367 537.622 351.437C533.858 353.759 528.181 357.249 522.722 360.545C519.755 362.342 516.858 364.083 514.374 365.542C513.797 365.866 513.194 366.135 512.57 366.348C512.227 362.81 511.899 358.828 511.899 358.828Z" fill="black"/>
<path id="Vector_31" opacity="0.1" d="M574.597 344.691C574.597 344.691 574.597 356.386 574.277 368.404H574.183C572.258 368.474 570.33 368.412 568.412 368.218C565.047 367.847 562.353 366.929 561.384 365.107C559.424 361.561 553.935 357.047 549.296 353.686C549.054 346.803 548.859 340.58 548.859 340.58L574.597 344.691Z" fill="black"/>
<path id="Vector_32" d="M569.802 242.256C569.149 247.502 569.023 252.805 569.427 258.078C581.266 268.153 579.056 289.375 579.056 289.375C579.056 289.375 588.169 332.367 586.217 336.26C584.264 340.153 590.636 364.067 590.636 364.067C585.205 365.13 579.706 365.782 574.183 366.018C572.258 366.089 570.33 366.027 568.412 365.832C565.047 365.462 562.352 364.543 561.384 362.721C557.745 356.144 541.995 346.335 541.995 346.335C541.995 346.335 532.015 352.509 522.722 358.127C519.755 359.924 516.858 361.665 514.374 363.124C512.359 364.227 510.132 364.858 507.854 364.97C496.804 365.816 482.084 358.675 484.427 356.144C487.293 353.049 501.482 298.781 501.482 298.781C501.482 298.781 508.635 265.195 514.882 260.496C515.977 259.642 516.794 258.464 517.225 257.119C519.364 250.985 515.788 241.152 515.788 241.152C515.788 241.152 495.617 215.497 496.523 214.013C497.429 212.53 497.437 204.615 497.437 204.615C497.437 204.615 499.912 192.122 501.341 186.077C502.77 180.032 513.055 178.549 516.045 179.089C519.036 179.629 525.799 181.507 528.657 179.089C531.515 176.671 536.341 180.032 536.341 180.032L548.195 183.401L558.854 176.953C558.854 176.953 569.537 177.518 570.45 178.993C571.364 180.468 585.42 183.297 585.42 183.297C592.573 188.262 592.315 211.91 592.315 211.91C592.315 211.91 575.136 227.353 571.622 235.284C570.711 237.512 570.099 239.857 569.802 242.256Z" fill="#575A89"/>
<path id="Vector_33" d="M588.427 208.637L592.331 211.861L596.368 249.341L600.398 286.957C600.398 286.957 601.96 290.721 603.264 290.318C604.568 289.915 604.435 312.612 604.435 312.612C604.435 312.612 589.489 303.125 584.132 315.723L579.962 285.345C579.962 285.345 574.62 254.314 574.753 251.896C574.886 249.478 572.02 223.283 572.02 223.283L588.427 208.637Z" fill="#575A89"/>
<path id="Vector_34" opacity="0.1" d="M557.784 268.596C557.784 268.596 568.85 340.331 536.083 349.197C536.075 349.164 558.753 345.61 557.784 268.596Z" fill="black"/>
<path id="Vector_35" opacity="0.1" d="M574.183 366.018C572.258 366.089 570.33 366.027 568.412 365.832L559.573 267.75C565.211 271.554 571.958 341.161 574.183 366.018Z" fill="black"/>
<path id="Vector_36" opacity="0.1" d="M534.545 148.219C535.131 148.171 535.722 148.234 536.286 148.405C537.115 148.831 537.861 149.41 538.488 150.113C539.507 150.992 540.724 151.589 542.027 151.85C543.33 152.111 544.676 152.026 545.938 151.605C546.829 151.194 547.774 150.922 548.742 150.799C550.233 150.799 551.522 151.927 552.295 153.217C553.068 154.506 553.466 156.038 554.13 157.416C554.794 158.794 555.856 160.1 557.316 160.438C558.016 160.466 558.705 160.63 559.346 160.922C559.739 161.252 560.041 161.683 560.221 162.171C561.439 164.887 562.407 168.095 565.008 169.425C565.964 169.883 567.007 170.117 568.061 170.11C569.133 170.192 570.207 169.992 571.184 169.53C572.146 168.976 572.94 168.159 573.48 167.168C575.105 164.396 575.292 160.962 574.909 157.746C574.433 153.689 573.033 149.806 570.825 146.414C568.499 142.983 565.333 140.251 561.649 138.496C557.966 136.742 553.897 136.028 549.858 136.427C548.449 136.591 547.052 136.86 545.68 137.233C540.714 138.604 535.841 141.167 532.827 145.463C532.098 146.535 531.297 147.553 530.43 148.509C531.796 148.372 533.171 148.252 534.545 148.219Z" fill="black"/>
<path id="Vector_37" d="M534.545 147.413C535.131 147.365 535.722 147.428 536.286 147.599C537.115 148.025 537.861 148.604 538.488 149.307C539.507 150.186 540.724 150.783 542.027 151.044C543.33 151.305 544.676 151.22 545.938 150.799C546.829 150.388 547.774 150.116 548.742 149.993C550.233 149.993 551.522 151.121 552.295 152.411C553.068 153.7 553.466 155.232 554.13 156.61C554.794 157.988 555.856 159.294 557.316 159.632C558.016 159.66 558.705 159.824 559.346 160.116C559.739 160.446 560.041 160.877 560.221 161.365C561.439 164.081 562.407 167.289 565.008 168.619C565.964 169.077 567.007 169.311 568.061 169.304C569.133 169.386 570.207 169.186 571.184 168.724C572.146 168.17 572.94 167.353 573.48 166.362C575.105 163.59 575.292 160.156 574.909 156.94C574.433 152.883 573.033 149 570.825 145.608C568.499 142.177 565.333 139.445 561.649 137.69C557.966 135.936 553.897 135.222 549.858 135.621C548.449 135.785 547.052 136.054 545.68 136.427C540.714 137.798 535.841 140.361 532.827 144.657C532.098 145.729 531.297 146.747 530.43 147.703C531.796 147.566 533.171 147.446 534.545 147.413Z" fill="#3F3D56"/>
<path id="Vector_38" opacity="0.1" d="M580.875 250.824C580.875 250.824 588.294 239.54 589.34 242.764C590.387 245.988 580.875 250.824 580.875 250.824Z" fill="black"/>
<path id="Vector_39" opacity="0.1" d="M581.399 254.58C581.399 254.58 588.716 245.311 589.418 248.938C590.121 252.565 581.399 254.58 581.399 254.58Z" fill="black"/>
<path id="Vector_40" opacity="0.1" d="M559.908 243.545C557.255 243.584 554.665 242.705 552.552 241.047H551.912C549.721 243.113 546.844 244.23 543.877 244.166C542.334 244.203 540.8 243.916 539.368 243.323C537.936 242.73 536.635 241.843 535.544 240.716H534.693C532.445 242.606 529.621 243.613 526.722 243.559C523.823 243.504 521.037 242.392 518.857 240.418L515.803 240.362C515.803 240.362 519.38 250.195 517.24 256.329L569.427 257.288C569.024 252.015 569.149 246.712 569.802 241.466V241.393L566.936 241.337C564.875 242.813 562.417 243.585 559.908 243.545Z" fill="black"/>
<path id="Vector_41" opacity="0.1" d="M559.908 245.157C557.255 245.196 554.665 244.317 552.552 242.659H551.912C549.721 244.725 546.844 245.842 543.877 245.778C542.334 245.815 540.8 245.528 539.368 244.935C537.936 244.342 536.635 243.455 535.544 242.328H534.693C532.445 244.218 529.621 245.225 526.722 245.171C523.823 245.116 521.037 244.004 518.857 242.03L515.803 241.974C515.803 241.974 519.38 251.807 517.24 257.941L569.427 258.9C569.024 253.627 569.149 248.324 569.802 243.078V243.005L566.936 242.949C564.875 244.425 562.417 245.197 559.908 245.157Z" fill="black"/>
<path id="Vector_42" d="M559.908 244.351C557.255 244.39 554.665 243.511 552.552 241.853H551.912C549.721 243.919 546.844 245.036 543.877 244.972C542.334 245.009 540.8 244.722 539.368 244.129C537.936 243.536 536.635 242.649 535.544 241.522H534.693C532.445 243.412 529.621 244.419 526.722 244.365C523.823 244.31 521.037 243.197 518.857 241.224L515.803 241.168C515.803 241.168 519.38 251.001 517.24 257.135L569.427 258.094C569.024 252.821 569.149 247.518 569.802 242.272V242.199L566.936 242.143C564.875 243.619 562.417 244.391 559.908 244.351Z" fill="#3F3D56"/>
<path id="Vector_43" opacity="0.1" d="M557.589 190.607C557.589 190.607 568.576 191.333 568.647 192.945C568.717 194.557 557.589 190.607 557.589 190.607Z" fill="black"/>
<path id="Vector_44" opacity="0.1" d="M572.887 216.689C572.778 216.609 572.668 216.544 572.559 216.472C575.37 219.083 574.902 224.79 571.45 229.497C567.998 234.204 562.759 236.162 559.573 234.051C559.674 234.139 559.76 234.236 559.869 234.325C562.993 236.791 568.459 234.857 572.067 229.988C575.675 225.12 576.026 219.164 572.887 216.689Z" fill="black"/>
<path id="Vector_45" opacity="0.1" d="M573.402 164.775C572.862 165.765 572.068 166.582 571.106 167.136C570.129 167.598 569.055 167.798 567.983 167.717C566.929 167.723 565.886 167.489 564.929 167.031C562.329 165.694 561.361 162.486 560.143 159.777C559.988 159.289 559.714 158.85 559.346 158.504C558.714 158.207 558.033 158.035 557.339 157.996C555.879 157.658 554.825 156.344 554.153 154.974C553.482 153.603 553.083 152.088 552.318 150.774C551.553 149.461 550.256 148.308 548.765 148.356C547.794 148.489 546.849 148.775 545.962 149.203C544.698 149.621 543.353 149.703 542.05 149.441C540.748 149.179 539.53 148.581 538.512 147.704C537.885 147 537.138 146.421 536.31 145.995C535.745 145.824 535.155 145.761 534.568 145.809C533.67 145.809 532.78 145.898 531.882 145.971C531.437 146.573 530.96 147.148 530.453 147.695C531.82 147.575 533.194 147.454 534.568 147.421C535.155 147.373 535.745 147.436 536.31 147.607C537.138 148.033 537.885 148.612 538.512 149.316C539.53 150.193 540.748 150.791 542.05 151.053C543.353 151.315 544.698 151.233 545.962 150.815C546.849 150.387 547.794 150.101 548.765 149.968C550.256 149.968 551.545 151.097 552.318 152.386C553.091 153.676 553.489 155.207 554.153 156.586C554.817 157.964 555.879 159.27 557.339 159.608C558.033 159.647 558.714 159.819 559.346 160.116C559.739 160.446 560.041 160.877 560.221 161.365C561.439 164.082 562.407 167.289 565.008 168.619C565.964 169.077 567.007 169.311 568.061 169.304C569.133 169.386 570.207 169.186 571.184 168.724C572.146 168.17 572.94 167.353 573.48 166.363C574.693 164.084 575.235 161.491 575.042 158.899C574.983 160.969 574.419 162.99 573.402 164.775Z" fill="black"/>
</g>
<path id="Vector_46" d="M503.387 253.717C507.269 253.717 510.415 251.516 510.415 248.801C510.415 246.085 507.269 243.884 503.387 243.884C499.506 243.884 496.359 246.085 496.359 248.801C496.359 251.516 499.506 253.717 503.387 253.717Z" fill="#575A89"/>
</g>
</g>
<g id="sad-emoji">
<path id="Vector_47" d="M281.906 518.305C414.955 518.305 522.812 406.979 522.812 269.652C522.812 132.325 414.955 21 281.906 21C148.857 21 41 132.325 41 269.652C41 406.979 148.857 518.305 281.906 518.305Z" fill="#6C63FF"/>
<g id="Group 1">
<path id="Vector_48" d="M408.309 394.607C408.309 433.86 348.524 397.96 284.428 397.96C220.332 397.96 155.503 432.377 155.503 393.124C155.503 370.741 176.165 339.614 205.808 317.005C228.141 299.966 255.566 287.763 283.116 287.763C311.447 287.763 339.2 300.974 361.339 319.109C389.279 341.975 408.309 372.7 408.309 394.607Z" fill="#444053"/>
<path id="Vector_49" d="M361.331 319.093C327.26 313.797 265.64 307.341 205.808 316.989C228.141 299.95 255.566 287.747 283.116 287.747C311.439 287.747 339.192 300.958 361.331 319.093Z" fill="#F6F8FB"/>
</g>
<path id="Vector_50" opacity="0.05" d="M155.503 94.1288C155.503 94.1288 82.9341 142.014 83.5275 216.915C84.121 291.817 155.503 94.1288 155.503 94.1288Z" fill="black"/>
<path id="Vector_51" d="M196.257 237.049C200.841 236.783 222.417 235.107 236.122 227.039C238.323 225.702 240.81 224.947 243.361 224.838C247.718 224.71 252.732 226.588 249.522 237.098C244.322 254.29 214.124 273.634 195.383 272.562C177.36 271.53 155.979 264.035 141.86 237.678C140.508 235.142 139.841 232.278 139.932 229.384C140.096 224.065 141.97 217.399 151.645 224.83C164.717 234.865 189.518 236.767 194.493 237.049C195.081 237.082 195.67 237.082 196.257 237.049Z" fill="#444053"/>
<path id="Vector_52" d="M368.547 237.503C373.23 237.238 395.271 235.564 409.27 227.509C411.519 226.175 414.059 225.42 416.665 225.312C421.116 225.183 426.238 227.058 422.959 237.551C417.646 254.715 386.799 274.028 367.654 272.957C349.243 271.927 327.401 264.444 312.979 238.131C311.597 235.599 310.916 232.739 311.008 229.851C311.176 224.54 313.09 217.885 322.974 225.304C336.328 235.322 361.663 237.221 366.744 237.503C367.345 237.536 367.947 237.536 368.547 237.503V237.503Z" fill="#444053"/>
</g>
</g>
<defs>
<linearGradient id="paint0_linear" x1="565.695" y1="518.208" x2="565.695" y2="120.009" gradientUnits="userSpaceOnUse">
<stop stop-color="#808080" stop-opacity="0.25"/>
<stop offset="0.54" stop-color="#808080" stop-opacity="0.12"/>
<stop offset="1" stop-color="#808080" stop-opacity="0.1"/>
</linearGradient>
<clipPath id="clip0">
<rect width="700" height="540" fill="white"/>
</clipPath>
</defs>
</svg>
